<?xml version="1.0" encoding="UTF-8" ?>
<!DOCTYPE svg PUBLIC "-//W3C//DTD SVG 1.1//EN" "http://www.w3.org/Graphics/SVG/1.1/DTD/svg11.dtd">
<svg width="400pt" height="155pt" viewBox="0 0 400 155" version="1.1" xmlns="http://www.w3.org/2000/svg">
<path fill="#feb300" d=" M 102.62 43.31 C 113.16 31.72 124.55 20.93 135.19 9.44 C 148.64 22.26 161.27 35.94 174.66 48.83 C 174.63 51.59 174.69 54.36 174.65 57.13 C 161.57 44.06 148.70 30.77 135.52 17.79 C 135.48 26.30 135.36 34.82 135.42 43.33 C 124.49 43.35 113.55 43.39 102.62 43.31 Z" />
<path fill="#feb300" d=" M 81.64 64.33 C 84.37 64.30 87.11 64.29 89.85 64.29 C 89.91 88.19 89.76 112.09 89.93 135.99 C 105.15 136.01 120.37 135.99 135.60 136.00 C 148.61 136.01 161.62 136.01 174.64 136.00 C 189.80 136.00 204.97 136.01 220.13 135.99 C 231.05 136.01 241.97 136.04 252.89 135.98 C 241.94 125.03 231.12 113.93 220.03 103.12 C 219.91 100.41 219.96 97.70 220.08 95.00 C 233.82 108.59 247.16 122.60 261.06 136.03 C 269.45 135.95 277.84 136.11 286.22 135.91 C 318.83 136.08 351.44 136.00 384.05 135.95 C 383.99 137.30 383.95 138.64 383.92 139.98 C 258.91 140.01 133.90 139.98 8.89 140.00 C 15.39 131.85 23.25 124.91 30.32 117.27 C 47.34 99.54 64.78 82.21 81.64 64.33 Z" />
<path fill="#53006a" d=" M 50.46 43.40 C 67.84 43.18 85.23 43.36 102.62 43.31 C 113.55 43.39 124.49 43.35 135.42 43.33 C 141.73 43.47 148.10 42.94 154.37 43.54 C 160.95 49.76 167.12 56.41 173.60 62.74 C 173.71 63.44 173.50 64.05 172.96 64.57 C 160.51 64.13 148.04 64.45 135.57 64.40 C 135.62 88.27 135.57 112.13 135.60 136.00 C 120.37 135.99 105.15 136.01 89.93 135.99 C 89.76 112.09 89.91 88.19 89.85 64.29 C 87.11 64.29 84.37 64.30 81.64 64.33 C 72.67 64.43 63.71 64.29 54.75 64.41 C 53.30 62.99 51.88 61.55 50.48 60.08 C 50.55 54.52 50.57 48.96 50.46 43.40 Z" />
<path fill="#53006a" d=" M 179.29 43.36 C 195.86 43.21 212.45 43.35 229.02 43.30 C 236.74 43.39 244.53 42.86 252.17 44.33 C 262.96 45.93 273.25 50.06 282.52 55.70 C 294.29 48.29 307.92 42.75 322.04 43.29 C 340.18 43.35 358.33 43.21 376.47 43.36 C 377.50 44.99 378.92 46.43 379.59 48.26 C 379.80 52.78 379.56 57.31 379.68 61.83 C 360.76 62.41 341.26 59.90 322.88 65.62 C 314.82 67.89 307.64 73.46 304.24 81.22 C 300.79 89.90 303.25 100.64 310.30 106.82 C 317.84 113.50 328.36 114.69 338.01 115.08 C 342.18 114.53 346.71 114.83 350.48 112.69 C 351.45 110.69 351.21 108.26 350.82 106.15 C 346.03 100.49 341.02 95.01 336.04 89.52 C 351.99 89.09 367.96 89.50 383.92 89.31 C 384.27 104.85 384.07 120.41 384.05 135.95 C 351.44 136.00 318.83 136.08 286.22 135.91 C 282.75 132.94 278.36 131.21 275.17 127.88 C 268.16 120.60 262.07 112.04 259.66 102.08 C 252.98 104.25 245.96 105.29 238.95 104.45 C 237.17 104.65 236.15 103.07 235.00 102.04 C 230.32 97.05 225.22 92.46 220.72 87.30 C 228.83 87.14 236.94 87.41 245.04 87.19 C 250.40 86.91 256.75 83.97 257.41 78.00 C 258.72 71.45 253.56 64.76 246.94 64.27 C 238.01 64.03 229.06 64.25 220.13 64.19 C 220.09 74.46 220.25 84.73 220.08 95.00 C 219.96 97.70 219.91 100.41 220.03 103.12 C 220.27 114.07 220.08 125.03 220.13 135.99 C 204.97 136.01 189.80 136.00 174.64 136.00 C 174.60 109.71 174.65 83.42 174.65 57.13 C 174.69 54.36 174.63 51.59 174.66 48.83 C 175.29 46.51 177.35 44.66 179.29 43.36 Z" />
</svg>