<svg width="1280" height="720" xmlns="http://www.w3.org/2000/svg" xmlns:xlink="http://www.w3.org/1999/xlink" overflow="hidden"><g><rect x="0" y="0" width="1280" height="720" fill="#FFFFFF" fill-opacity="0"/><rect x="47" y="48" width="389" height="10" fill="#3A2A5C"/><rect x="844" y="48" width="389" height="10" fill="#969FA7"/><rect x="445" y="48" width="389" height="10" fill="#59418F"/><text fill="#3A2A5C" font-family="Gill Sans MT,Gill Sans MT_MSFontService,sans-serif" font-weight="700" font-size="37" transform="translate(9.90772 41)">BOT DEPLOYMENT</text><g><g><g><path d="M336 155 330 155 330 149 336 149 336 155ZM336 171 330 171 330 165 336 165 336 171ZM336 187 330 187 330 181 336 181 336 187ZM336 203 330 203 330 197 336 197 336 203ZM322 155 316 155 316 149 322 149 322 155ZM322 171 316 171 316 165 322 165 322 171ZM322 187 316 187 316 181 322 181 322 187ZM322 209 316 209 316 197 322 197 322 209ZM308 155 302 155 302 149 308 149 308 155ZM308 171 302 171 302 165 308 165 308 171ZM308 187 302 187 302 181 308 181 308 187ZM308 203 302 203 302 197 308 197 308 203ZM343 209 343 142 340 142 340 136 337 136 337 132 301 132 301 136 298 136 298 142 295 142 295 209 291 209 291 216 347 216 347 209 343 209Z"/></g></g></g><path d="M819 387 874 332 874 359.5 1047 359.5 1047 332 1102 387 1047 442 1047 414.5 874 414.5 874 442Z" stroke="#281C41" stroke-width="2.33333" stroke-linecap="round" stroke-linejoin="round" stroke-miterlimit="10" fill="#3A2A5C" fill-rule="evenodd"/><text fill="#FFFFFF" font-family="Gill Sans MT,Gill Sans MT_MSFontService,sans-serif" font-weight="400" font-size="24" transform="translate(886.655 396)">Apate pipeline</text><g><g><g><path d="M1208 382 1201.1 370 1201.1 369.5C1201.7 352.9 1188.7 339 1172.1 338.4 1155.5 337.8 1141.6 350.7 1141 367.3 1141 368 1141 368.8 1141 369.5 1141 379 1145.3 387.9 1152.8 393.7L1152.8 419 1184.4 419 1184.4 407 1189.3 407C1195.8 407 1201.1 401.7 1201.1 395.2 1201.1 395.1 1201.1 395.1 1201.1 395L1201.1 389 1205.5 389C1208.1 388.7 1210.4 385.7 1208 382ZM1145.5 359.5 1151 359.5 1151 355.5C1149.9 354.7 1149.7 353.1 1150.5 352 1151.3 350.9 1152.9 350.7 1154 351.5 1155.1 352.3 1155.3 353.9 1154.5 355 1154.4 355.2 1154.2 355.4 1154 355.5L1154 359.5 1158 359.5 1158 366.5C1159.1 367.3 1159.3 368.9 1158.5 370 1157.7 371.1 1156.1 371.3 1155 370.5 1153.9 369.7 1153.7 368.1 1154.5 367 1154.6 366.8 1154.8 366.6 1155 366.5L1155 362.5 1144.6 362.5C1144.9 361.5 1145.1 360.5 1145.5 359.5ZM1173.3 376.4C1171.9 376.4 1170.8 375.3 1170.8 373.9 1170.8 373.8 1170.8 373.6 1170.8 373.5L1168.2 370.9 1164 375.1 1164 382.5C1165.1 383.3 1165.3 384.9 1164.5 386 1163.7 387.1 1162.1 387.3 1161 386.5 1159.9 385.7 1159.7 384.1 1160.5 383 1160.6 382.8 1160.8 382.6 1161 382.5L1161 381.5 1154.3 381.5 1149.6 376C1148.2 376.1 1147 375.1 1146.9 373.7 1146.8 372.3 1147.8 371.1 1149.2 371 1150.6 370.9 1151.8 371.9 1151.9 373.3 1151.9 373.5 1151.9 373.8 1151.9 374L1155.7 378.5 1161 378.5 1161 373.9 1166.1 368.8 1163 365.6 1163 347.5C1161.9 346.7 1161.7 345.1 1162.5 344 1163.3 342.9 1164.9 342.7 1166 343.5 1167.1 344.3 1167.3 345.9 1166.5 347 1166.4 347.2 1166.2 347.4 1166 347.5L1166 350.5 1174 350.5 1174 357.5C1175.1 358.3 1175.3 359.9 1174.5 361 1173.7 362.1 1172.1 362.3 1171 361.5 1169.9 360.7 1169.7 359.1 1170.5 358 1170.6 357.8 1170.8 357.6 1171 357.5L1171 353.5 1166 353.5 1166 364.4 1173 371.4C1173.1 371.4 1173.2 371.4 1173.3 371.4 1174.7 371.4 1175.8 372.5 1175.8 373.9 1175.8 375.3 1174.7 376.4 1173.3 376.4L1173.3 376.4ZM1185.5 356.2C1184.1 356.2 1183 355.1 1183 353.7 1183 353.6 1183 353.6 1183 353.5L1179 349.9 1179 342.6C1180 342.9 1181 343.3 1182 343.7L1182 348.6 1185 351.3C1185.2 351.3 1185.3 351.3 1185.5 351.3 1186.9 351.3 1188 352.4 1188 353.8 1188 355.2 1186.9 356.2 1185.5 356.2L1185.5 356.2Z"/></g></g></g><text font-family="Gill Sans MT,Gill Sans MT_MSFontService,sans-serif" font-weight="400" font-size="24" transform="translate(1127.99 464)">Apate</text><text font-family="Gill Sans MT,Gill Sans MT_MSFontService,sans-serif" font-weight="400" font-size="24" transform="translate(1127.99 493)">bot</text><g><g><g><path d="M776.486 376.786 776.486 369.063C776.546 366.434 771.423 364.133 763.835 362.953L763.835 369.038C766.12 369.373 768.354 369.99 770.486 370.876L770.486 371.26C767.124 372.073 763.703 372.618 760.255 372.89 760.561 372.326 760.724 371.695 760.728 371.053L760.728 355.989C760.764 355.989 760.798 356 760.835 356 761.663 356 762.335 355.328 762.335 354.5L762.335 346.5C762.335 345.672 761.663 345 760.835 345 760.007 345 759.335 345.672 759.335 346.5L758.335 346.5 758.335 344.5C758.335 343.672 757.663 343 756.835 343 756.007 343 755.335 343.672 755.335 344.5L755.335 346.5 754.335 346.5 754.335 342.5C754.335 341.672 753.663 341 752.835 341 752.007 341 751.335 341.672 751.335 342.5L751.335 346.5 750.335 346.5 750.335 344.5C750.335 343.672 749.663 343 748.835 343 748.007 343 747.335 343.672 747.335 344.5L747.335 346.5 746.335 346.5C746.335 345.672 745.663 345 744.835 345 744.007 345 743.335 345.672 743.335 346.5L743.335 348.5 710.942 348.5C709.937 348.478 709.061 349.179 708.862 350.164 708.676 351.253 709.409 352.286 710.498 352.472 710.609 352.491 710.722 352.5 710.835 352.5L743.335 352.5 743.335 354.5C743.335 355.328 744.007 356 744.835 356 745.663 356 746.335 355.328 746.335 354.5L747.335 354.5 747.335 356.5C747.335 357.328 748.007 358 748.835 358 748.852 358 748.868 358 748.885 358L748.885 365.88C748.861 366.959 749.663 367.879 750.736 368 751.528 368.058 752.279 367.642 752.65 366.941 752.679 366.894 752.74 366.879 752.787 366.907 752.814 366.923 752.832 366.951 752.835 366.982L752.835 371.058C752.835 371.832 753.064 372.59 753.493 373.234 746.913 373.395 740.339 372.738 733.921 371.28L733.921 370.913C735.763 370.024 739.9 368.891 745.834 368.385L745.834 362.361C735.499 363.167 727.927 365.873 727.927 369.061L727.9 376.842C725.076 378.116 723.436 379.625 723.436 381.242L723.336 423.766C723.335 428.293 736.309 432 752.167 432 768.025 432 781 428.293 781 423.762L781 381.238C781.037 379.6 779.372 378.072 776.486 376.786ZM772.151 396.834C765.636 398.576 758.909 399.397 752.167 399.273 745.454 399.399 738.756 398.589 732.267 396.866 730.568 396.359 729.406 394.794 729.412 393.021L729.43 382.783C729.664 382.649 729.97 382.489 730.366 382.311L733.884 380.723 733.896 377.423C739.904 378.669 746.028 379.277 752.164 379.237 753.031 379.237 753.895 379.226 754.758 379.203 754.983 379.493 755.165 379.814 755.3 380.156 755.606 380.989 755.761 381.869 755.759 382.756 755.803 386.163 755.016 387.47 753.692 389.726 753.21 390.429 752.928 391.251 752.878 392.102 752.879 394.254 754.622 395.998 756.774 396L756.788 396C758.94 395.997 760.682 394.252 760.682 392.1 760.631 391.249 760.35 390.427 759.867 389.724 758.543 387.468 757.756 386.161 757.8 382.754 757.798 381.867 757.953 380.987 758.259 380.154 758.428 379.731 758.67 379.341 758.974 379.002 762.845 378.76 766.693 378.232 770.486 377.422L770.486 380.678 774.044 382.264C774.444 382.444 774.761 382.605 774.999 382.74L774.999 393C775 394.767 773.843 396.325 772.151 396.834Z"/></g></g></g><text font-family="Gill Sans MT,Gill Sans MT_MSFontService,sans-serif" font-weight="400" font-size="24" transform="translate(680.906 483)">Public honeypot</text><text font-family="Gill Sans MT,Gill Sans MT_MSFontService,sans-serif" font-weight="400" font-size="24" transform="translate(684.479 512)">(</text><text font-family="Gill Sans MT,Gill Sans MT_MSFontService,sans-serif" font-weight="400" font-size="24" transform="translate(692.313 512)">mobile phone</text><text font-family="Gill Sans MT,Gill Sans MT_MSFontService,sans-serif" font-weight="400" font-size="24" transform="translate(825.479 512)">)</text><g><g><g><path d="M398.5 142.5C398.521 140.597 397.003 139.034 395.1 139L395 139C393.067 139 391.5 140.567 391.5 142.5 391.5 144.433 393.067 146 395 146 396.933 146 398.5 144.433 398.5 142.5ZM396.5 142.483C396.509 143.311 395.845 143.99 395.017 144 394.189 144.009 393.51 143.345 393.5 142.517 393.491 141.689 394.155 141.01 394.983 141 394.989 141 394.994 141 395 141L395.065 141C395.871 141.014 396.513 141.677 396.5 142.483Z"/><path d="M414.956 160.705 413.542 159.291 406.249 166.583 402.956 163.291 401.542 164.705 406.249 169.412 414.956 160.705Z"/><path d="M374.999 162.998 395.999 162.998 395.999 164.998 374.999 164.998Z"/><path d="M414.956 172.707 413.542 171.293 406.249 178.586 402.956 175.293 401.542 176.707 406.249 181.414 414.956 172.707Z"/><path d="M374.999 175 395.999 175 395.999 177 374.999 177Z"/><path d="M414.956 184.707 413.542 183.293 406.249 190.586 402.956 187.293 401.542 188.707 406.249 193.414 414.956 184.707Z"/><path d="M374.999 187 395.999 187 395.999 189 374.999 189Z"/><path d="M414.956 196.707 413.542 195.293 406.249 202.586 402.956 199.293 401.542 200.707 406.249 205.414 414.956 196.707Z"/><path d="M374.999 199 395.999 199 395.999 201 374.999 201Z"/><path d="M421 140.979 406 140.979 406 138.979C405.997 136.219 403.76 133.982 401 133.979L389 133.979C386.24 133.982 384.003 136.219 384 138.979L384 140.979 369 140.979C366.791 140.979 365 142.77 365 144.979L365 210C365 212.209 366.791 214 369 214L421 214C423.209 214 425 212.209 425 210L425 144.979C425 142.77 423.209 140.979 421 140.979ZM382 142.979 386 142.979 386 138.979C386 137.322 387.343 135.979 389 135.979L401 135.979C402.657 135.979 404 137.322 404 138.979L404 142.979 408 142.979 408 151 382 151ZM423 210C423 211.105 422.105 212 421 212L369 212C367.895 212 367 211.105 367 210L367 144.979C367 143.874 367.895 142.979 369 142.979L380 142.979 380 153 410 153 410 142.979 421 142.979C422.105 142.979 423 143.874 423 144.979Z"/></g></g></g><text font-family="Gill Sans MT,Gill Sans MT_MSFontService,sans-serif" font-weight="400" font-size="24" transform="translate(314.189 246)">Telco scam</text><text font-family="Gill Sans MT,Gill Sans MT_MSFontService,sans-serif" font-weight="400" font-size="24" transform="translate(283.223 275)">numbers forward</text><g><g><g><path d="M61.875 75 28.125 75 28.125 15 61.875 15 61.875 75ZM41.25 7.5 48.75 7.5C49.7812 7.5 50.625 8.34375 50.625 9.375 50.625 10.4062 49.7812 11.25 48.75 11.25L41.25 11.25C40.2188 11.25 39.375 10.4062 39.375 9.375 39.375 8.34375 40.2188 7.5 41.25 7.5ZM65.625 3.75 24.375 3.75C23.3438 3.75 22.5 4.59375 22.5 5.625L22.5 84.375C22.5 85.4062 23.3438 86.25 24.375 86.25L65.625 86.25C66.6562 86.25 67.5 85.4062 67.5 84.375L67.5 5.625C67.5 4.59375 66.6562 3.75 65.625 3.75Z" transform="matrix(1 0 0 1.01111 84 272)"/></g></g></g><text font-family="Gill Sans MT,Gill Sans MT_MSFontService,sans-serif" font-weight="400" font-size="24" transform="translate(84.6892 391)">Personal</text><text font-family="Gill Sans MT,Gill Sans MT_MSFontService,sans-serif" font-weight="400" font-size="24" transform="translate(73.5226 420)">forwarding</text><g><g><g><path d="M399.2 413.9C388.6 407.6 376.2 404 363 404 349.8 404 337.4 407.6 326.8 413.9 324.8 415.1 324.2 417.7 325.5 419.6L330.8 427.4C332.2 429.5 335.2 429.8 336.9 428L341.8 423.1C342.6 422.3 343 421.3 343 420.3L343 415.2C349.3 413.1 356 411.9 363 411.9 370 411.9 376.7 413.1 383 415.2L383 420.3C383 421.4 383.4 422.4 384.2 423.1L389.1 428C390.9 429.8 393.8 429.5 395.2 427.4L400.5 419.6C401.8 417.7 401.2 415.1 399.2 413.9Z"/><path d="M373 437 369 437 369 433 373 433 373 437ZM373 445 369 445 369 441 373 441 373 445ZM373 453 369 453 369 449 373 449 373 453ZM365 437 361 437 361 433 365 433 365 437ZM365 445 361 445 361 441 365 441 365 445ZM365 453 361 453 361 449 365 449 365 453ZM357 437 353 437 353 433 357 433 357 437ZM357 445 353 445 353 441 357 441 357 445ZM357 453 353 453 353 449 357 449 357 453ZM379 426 379 420C379 418.3 377.7 417 376 417 374.3 417 373 418.3 373 420L373 425 353 425 353 420C353 418.3 351.7 417 350 417 348.3 417 347 418.3 347 420L347 426 335.3 437.7C333.8 439.2 333 441.2 333 443.4L333 461 393 461 393 443.3C393 441.2 392.2 439.1 390.7 437.6L379 426Z"/></g></g></g><g><g><g><path d="M121.613 506 155.276 506 154.081 503.212C152.218 498.864 151.313 489.733 151.313 475.3L151.313 473.3 118 473.3 118 475.3C118 490.5 118.983 499.865 121.094 504.788ZM147.318 477.3C147.388 488.915 148.077 496.92 149.457 502L124.315 502C122.839 497.518 122.08 489.4 122.006 477.3Z"/><path d="M140.509 544.3 166.276 544.3 165.081 541.512C163.218 537.164 162.313 528.033 162.313 513.599L162.313 511.599 129 511.599 129 513.599C129 516.75 129.045 519.637 129.131 522.299L115.39 522.299C114.559 515.331 114.199 508.315 114.313 501.299L114.313 499.299 81 499.299 81 501.299C81 516.499 81.983 525.864 84.094 530.787L84.613 532 106.343 532C106.643 542.646 107.622 549.787 109.337 553.788L109.856 555 143.521 555 142.321 552.212C141.379 549.664 140.77 547.004 140.509 544.3ZM158.318 515.6C158.388 527.216 159.077 535.221 160.457 540.3L135.315 540.3C133.839 535.817 133.08 527.7 133.006 515.6ZM85.006 503.3 110.318 503.3C110.388 514.915 111.077 522.92 112.457 528L87.315 528C85.839 523.518 85.08 515.4 85.006 503.3ZM112.561 551C111.341 547.267 110.598 540.891 110.345 532L118.276 532 117.076 529.212C116.686 528.268 116.373 527.294 116.14 526.3L129.3 526.3C129.735 534.27 130.65 539.721 132.094 543.088L132.613 544.3 136.475 544.3C136.725 546.559 137.135 548.798 137.7 551Z"/></g></g></g><text font-family="Gill Sans MT,Gill Sans MT_MSFontService,sans-serif" font-weight="400" font-size="24" transform="translate(84.806 587)">Polluting</text><text font-family="Gill Sans MT,Gill Sans MT_MSFontService,sans-serif" font-weight="400" font-size="24" transform="translate(84.0394 616)">numbers</text><text font-family="Gill Sans MT,Gill Sans MT_MSFontService,sans-serif" font-weight="400" font-size="24" transform="translate(303.443 498)">Commercial</text><text font-family="Gill Sans MT,Gill Sans MT_MSFontService,sans-serif" font-weight="400" font-size="24" transform="translate(319.789 527)">redirects</text><rect x="518" y="130" width="19" height="523" fill="#3A2A5C"/><path d="M534 383.5 661 383.5 661 372 684 395 661 418 661 406.5 534 406.5Z" fill="#3A2A5C" fill-rule="evenodd"/><path d="M537 96.0001 537 156 517 138.609 517 116 491 116 468 96.0001Z" fill="#3A2A5C" fill-rule="evenodd"/><path d="M538 699 478 699 495.391 679 518 679 518 653 538 630Z" fill="#3A2A5C" fill-rule="evenodd"/><text font-family="Gill Sans MT,Gill Sans MT_MSFontService,sans-serif" font-weight="400" font-size="24" transform="translate(574.039 376)">calls</text></g></svg>