<svg width="1280" height="720" xmlns="http://www.w3.org/2000/svg" xmlns:xlink="http://www.w3.org/1999/xlink" overflow="hidden"><g><rect x="0" y="0" width="1280" height="720" fill="#FFFFFF" fill-opacity="0"/><rect x="47" y="48" width="389" height="10" fill="#3A2A5C"/><rect x="844" y="48" width="389" height="10" fill="#969FA7"/><rect x="445" y="48" width="389" height="10" fill="#59418F"/><text fill="#3A2A5C" font-family="Gill Sans MT,Gill Sans MT_MSFontService,sans-serif" font-weight="700" font-size="37" transform="translate(9.90772 41)">DATA GATHERING INTELLIGENCE</text><g><g><g><path d="M208.2 239.337C204.579 236.375 199.971 234.4 195.363 233.083 192.071 232.096 188.45 231.438 184.5 231.438 180.879 231.438 177.258 232.096 173.637 233.083 169.029 234.4 164.421 236.704 160.8 239.337 159.154 240.654 158.167 242.629 158.167 244.604L158.167 257.771 210.833 257.771 210.833 244.604C210.833 242.629 209.846 240.654 208.2 239.337Z"/><path d="M171.663 203.788C172.156 203.788 172.568 203.623 172.815 203.294L172.815 203.294C175.859 200.331 179.974 198.521 184.5 198.521 193.552 198.521 200.958 205.927 200.958 214.979L200.958 218.765 191.495 221.892C191.083 221.727 190.672 221.562 190.26 221.562 188.861 221.562 187.792 222.632 187.792 224.031 187.792 225.43 188.861 226.5 190.26 226.5 191.248 226.5 192.153 225.924 192.565 225.019L205.649 220.657C206.307 220.41 206.801 219.834 206.801 219.094L206.801 211.688C206.801 210.782 206.06 210.042 205.155 210.042L203.674 210.042C201.452 201.566 193.717 195.229 184.5 195.229 179.151 195.229 174.296 197.369 170.675 200.825 170.264 201.154 170.017 201.566 170.017 202.142 170.017 203.047 170.757 203.788 171.663 203.788Z"/><path d="M197.584 216.378C197.667 215.884 197.667 215.473 197.667 214.979 197.667 207.738 191.742 201.812 184.5 201.812 177.258 201.812 171.333 207.738 171.333 214.979 171.333 222.221 177.258 228.146 184.5 228.146 184.747 228.146 185.076 228.146 185.323 228.064L185.323 224.031 185.323 224.031C185.323 223.291 185.488 222.55 185.817 221.809 186.393 220.657 187.38 219.752 188.697 219.341L197.584 216.378Z"/></g></g></g><text font-family="Gill Sans MT,Gill Sans MT_MSFontService,sans-serif" font-weight="400" font-size="24" transform="translate(127.655 290)">Scammer</text><text font-family="Gill Sans MT,Gill Sans MT_MSFontService,sans-serif" font-weight="400" font-size="24" transform="translate(221.588 290)">A</text><g><g><g><path d="M208.2 364.337C204.579 361.375 199.971 359.4 195.363 358.083 192.071 357.096 188.45 356.438 184.5 356.438 180.879 356.438 177.258 357.096 173.637 358.083 169.029 359.4 164.421 361.704 160.8 364.337 159.154 365.654 158.167 367.629 158.167 369.604L158.167 382.771 210.833 382.771 210.833 369.604C210.833 367.629 209.846 365.654 208.2 364.337Z"/><path d="M171.663 328.788C172.156 328.788 172.568 328.623 172.815 328.294L172.815 328.294C175.859 325.331 179.974 323.521 184.5 323.521 193.552 323.521 200.958 330.927 200.958 339.979L200.958 343.765 191.495 346.892C191.083 346.727 190.672 346.562 190.26 346.562 188.861 346.562 187.792 347.632 187.792 349.031 187.792 350.43 188.861 351.5 190.26 351.5 191.248 351.5 192.153 350.924 192.565 350.019L205.649 345.657C206.307 345.41 206.801 344.834 206.801 344.094L206.801 336.688C206.801 335.782 206.06 335.042 205.155 335.042L203.674 335.042C201.452 326.566 193.717 320.229 184.5 320.229 179.151 320.229 174.296 322.369 170.675 325.825 170.264 326.154 170.017 326.566 170.017 327.142 170.017 328.047 170.757 328.788 171.663 328.788Z"/><path d="M197.584 341.378C197.667 340.884 197.667 340.473 197.667 339.979 197.667 332.737 191.742 326.812 184.5 326.812 177.258 326.812 171.333 332.737 171.333 339.979 171.333 347.221 177.258 353.146 184.5 353.146 184.747 353.146 185.076 353.146 185.323 353.064L185.323 349.031 185.323 349.031C185.323 348.291 185.488 347.55 185.817 346.809 186.393 345.657 187.38 344.752 188.697 344.341L197.584 341.378Z"/></g></g></g><text font-family="Gill Sans MT,Gill Sans MT_MSFontService,sans-serif" font-weight="400" font-size="24" transform="translate(126.91 414)">Scammer B</text><g><g><g><path d="M62.4 51.675C58.825 48.75 54.275 46.8 49.725 45.5 46.475 44.525 42.9 43.875 39 43.875 35.425 43.875 31.85 44.525 28.275 45.5 23.725 46.8 19.175 49.075 15.6 51.675 13.975 52.975 13 54.925 13 56.875L13 69.875 65 69.875 65 56.875C65 54.925 64.025 52.975 62.4 51.675Z" transform="matrix(1 0 0 1.01282 145 444)"/><path d="M26.325 16.575C26.8125 16.575 27.2188 16.4125 27.4625 16.0875L27.4625 16.0875C30.4688 13.1625 34.5312 11.375 39 11.375 47.9375 11.375 55.25 18.6875 55.25 27.625L55.25 31.3625 45.9062 34.45C45.5 34.2875 45.0938 34.125 44.6875 34.125 43.3062 34.125 42.25 35.1812 42.25 36.5625 42.25 37.9438 43.3062 39 44.6875 39 45.6625 39 46.5562 38.4312 46.9625 37.5375L59.8812 33.2313C60.5312 32.9875 61.0187 32.4188 61.0187 31.6875L61.0187 24.375C61.0187 23.4812 60.2875 22.75 59.3937 22.75L57.9313 22.75C55.7375 14.3813 48.1 8.125 39 8.125 33.7188 8.125 28.925 10.2375 25.35 13.65 24.9438 13.975 24.7 14.3813 24.7 14.95 24.7 15.8438 25.4312 16.575 26.325 16.575Z" transform="matrix(1 0 0 1.01282 145 444)"/><path d="M51.9188 29.0063C52 28.5187 52 28.1125 52 27.625 52 20.475 46.15 14.625 39 14.625 31.85 14.625 26 20.475 26 27.625 26 34.775 31.85 40.625 39 40.625 39.2437 40.625 39.5688 40.625 39.8125 40.5438L39.8125 36.5625 39.8125 36.5625C39.8125 35.8312 39.975 35.1 40.3 34.3687 40.8687 33.2313 41.8438 32.3375 43.1437 31.9312L51.9188 29.0063Z" transform="matrix(1 0 0 1.01282 145 444)"/></g></g></g><text font-family="Gill Sans MT,Gill Sans MT_MSFontService,sans-serif" font-weight="400" font-size="24" transform="translate(125.586 546)">Scammer</text><text font-family="Gill Sans MT,Gill Sans MT_MSFontService,sans-serif" font-weight="400" font-size="24" transform="translate(125.586 575)">C</text><path d="M282 351 417 351 417 343 433 359 417 375 417 367 282 367Z" stroke="#281C41" stroke-width="2.33333" stroke-linecap="round" stroke-miterlimit="8" fill="#3A2A5C" fill-rule="evenodd"/><path d="M293.415 251.696 422.516 291.166 424.842 283.559 435.404 303.424 415.539 313.987 417.865 306.38 288.763 266.91Z" stroke="#281C41" stroke-width="2.33333" stroke-linecap="round" stroke-miterlimit="8" fill="#3A2A5C" fill-rule="evenodd"/><path d="M0 7.95458 135 7.95458 135 0 150.909 15.9092 135 31.8182 135 23.8636 0 23.8636Z" stroke="#281C41" stroke-width="2.33333" stroke-linecap="round" stroke-miterlimit="8" fill="#3A2A5C" fill-rule="evenodd" transform="matrix(0.956305 -0.292372 -0.292372 -0.956305 295.74 477.729)"/><path d="M647 348.5 702.5 293 702.5 320.75 916.5 320.75 916.5 293 972 348.5 916.5 404 916.5 376.25 702.5 376.25 702.5 404Z" stroke="#281C41" stroke-width="2.33333" stroke-linecap="round" stroke-linejoin="round" stroke-miterlimit="10" fill="#3A2A5C" fill-rule="evenodd"/><text fill="#FFFFFF" font-family="Gill Sans MT,Gill Sans MT_MSFontService,sans-serif" font-weight="400" font-size="24" transform="translate(735.655 357)">Apate pipeline</text><g><g><g><path d="M746 457 786 457 786 459 746 459Z"/><path d="M746 449 765 449 765 451 746 451Z"/><path d="M746 465 786 465 786 467 746 467Z"/><path d="M746 473 786 473 786 475 746 475Z"/><path d="M746 481 786 481 786 483 746 483Z"/><path d="M746 489 786 489 786 491 746 491Z"/><path d="M736 423 736 503 796 503 796 444.586 774.414 423ZM775.017 426.431 792.569 443.983C792.573 443.987 792.573 443.993 792.569 443.997 792.567 443.999 792.565 444 792.562 444L775 444 775 426.438C775 426.432 775.005 426.428 775.01 426.428 775.013 426.428 775.015 426.429 775.017 426.431ZM738 501 738 425 773 425 773 446 794 446 794 501Z"/></g></g></g><rect x="763" y="457" width="34" height="46" stroke="#FFFFFF" stroke-width="2.33333" stroke-linecap="round" stroke-linejoin="round" stroke-miterlimit="10" fill="#FFFFFF"/><g><g><g><path d="M773 490 813 490 813 492 773 492Z"/><path d="M773 482 792 482 792 484 773 484Z"/><path d="M773 498 813 498 813 500 773 500Z"/><path d="M773 506 813 506 813 508 773 508Z"/><path d="M773 514 813 514 813 516 773 516Z"/><path d="M773 522 813 522 813 524 773 524Z"/><path d="M763 456 763 536 823 536 823 477.586 801.414 456ZM802.017 459.431 819.569 476.983C819.573 476.987 819.573 476.993 819.569 476.997 819.567 476.999 819.565 477 819.562 477L802 477 802 459.438C802 459.432 802.005 459.428 802.01 459.428 802.013 459.428 802.015 459.429 802.017 459.431ZM765 534 765 458 800 458 800 479 821 479 821 534Z"/></g></g></g><rect x="789" y="491" width="34" height="45" stroke="#FFFFFF" stroke-width="2.33333" stroke-linecap="round" stroke-linejoin="round" stroke-miterlimit="10" fill="#FFFFFF"/><g><g><g><path d="M799 524 839 524 839 526 799 526Z"/><path d="M799 516 818 516 818 518 799 518Z"/><path d="M799 532 839 532 839 534 799 534Z"/><path d="M799 540 839 540 839 542 799 542Z"/><path d="M799 548 839 548 839 550 799 550Z"/><path d="M799 556 839 556 839 558 799 558Z"/><path d="M789 490 789 570 849 570 849 511.586 827.414 490ZM828.017 493.431 845.569 510.983C845.573 510.987 845.573 510.993 845.569 510.997 845.567 510.999 845.565 511 845.562 511L828 511 828 493.438C828 493.432 828.005 493.428 828.01 493.428 828.013 493.428 828.015 493.429 828.017 493.431ZM791 568 791 492 826 492 826 513 847 513 847 568Z"/></g></g></g><text font-family="Gill Sans MT,Gill Sans MT_MSFontService,sans-serif" font-weight="400" font-size="24" transform="translate(828.474 455)">Scam A transcript</text><text font-family="Gill Sans MT,Gill Sans MT_MSFontService,sans-serif" font-weight="400" font-size="24" transform="translate(854.925 494)">Scam B transcript</text><text font-family="Gill Sans MT,Gill Sans MT_MSFontService,sans-serif" font-weight="400" font-size="24" transform="translate(881.377 536)">Scam C transcript</text><g><g><g><path d="M1128 316 1121.1 304 1121.1 303.5C1121.7 286.9 1108.7 273 1092.1 272.4 1075.5 271.8 1061.6 284.7 1061 301.3 1061 302 1061 302.8 1061 303.5 1061 313 1065.3 321.9 1072.8 327.7L1072.8 353 1104.4 353 1104.4 341 1109.3 341C1115.8 341 1121.1 335.7 1121.1 329.2 1121.1 329.1 1121.1 329.1 1121.1 329L1121.1 323 1125.5 323C1128.1 322.7 1130.4 319.7 1128 316ZM1065.5 293.5 1071 293.5 1071 289.5C1069.9 288.7 1069.7 287.1 1070.5 286 1071.3 284.9 1072.9 284.7 1074 285.5 1075.1 286.3 1075.3 287.9 1074.5 289 1074.4 289.2 1074.2 289.4 1074 289.5L1074 293.5 1078 293.5 1078 300.5C1079.1 301.3 1079.3 302.9 1078.5 304 1077.7 305.1 1076.1 305.3 1075 304.5 1073.9 303.7 1073.7 302.1 1074.5 301 1074.6 300.8 1074.8 300.6 1075 300.5L1075 296.5 1064.6 296.5C1064.9 295.5 1065.1 294.5 1065.5 293.5ZM1093.3 310.4C1091.9 310.4 1090.8 309.3 1090.8 307.9 1090.8 307.8 1090.8 307.6 1090.8 307.5L1088.2 304.9 1084 309.1 1084 316.5C1085.1 317.3 1085.3 318.9 1084.5 320 1083.7 321.1 1082.1 321.3 1081 320.5 1079.9 319.7 1079.7 318.1 1080.5 317 1080.6 316.8 1080.8 316.6 1081 316.5L1081 315.5 1074.3 315.5 1069.6 310C1068.2 310.1 1067 309.1 1066.9 307.7 1066.8 306.3 1067.8 305.1 1069.2 305 1070.6 304.9 1071.8 305.9 1071.9 307.3 1071.9 307.5 1071.9 307.8 1071.9 308L1075.7 312.5 1081 312.5 1081 307.9 1086.1 302.8 1083 299.6 1083 281.5C1081.9 280.7 1081.7 279.1 1082.5 278 1083.3 276.9 1084.9 276.7 1086 277.5 1087.1 278.3 1087.3 279.9 1086.5 281 1086.4 281.2 1086.2 281.4 1086 281.5L1086 284.5 1094 284.5 1094 291.5C1095.1 292.3 1095.3 293.9 1094.5 295 1093.7 296.1 1092.1 296.3 1091 295.5 1089.9 294.7 1089.7 293.1 1090.5 292 1090.6 291.8 1090.8 291.6 1091 291.5L1091 287.5 1086 287.5 1086 298.4 1093 305.4C1093.1 305.4 1093.2 305.4 1093.3 305.4 1094.7 305.4 1095.8 306.5 1095.8 307.9 1095.8 309.3 1094.7 310.4 1093.3 310.4L1093.3 310.4ZM1105.5 290.2C1104.1 290.2 1103 289.1 1103 287.7 1103 287.6 1103 287.6 1103 287.5L1099 283.9 1099 276.6C1100 276.9 1101 277.3 1102 277.7L1102 282.6 1105 285.3C1105.2 285.3 1105.3 285.3 1105.5 285.3 1106.9 285.3 1108 286.4 1108 287.8 1108 289.2 1106.9 290.2 1105.5 290.2L1105.5 290.2Z"/></g></g></g><text font-family="Gill Sans MT,Gill Sans MT_MSFontService,sans-serif" font-weight="400" font-size="24" transform="translate(1047.99 398)">Apate</text><text font-family="Gill Sans MT,Gill Sans MT_MSFontService,sans-serif" font-weight="400" font-size="24" transform="translate(1047.99 427)">bot</text><g><g><g><path d="M570.486 344.786 570.486 337.063C570.546 334.434 565.423 332.133 557.835 330.953L557.835 337.038C560.12 337.373 562.354 337.99 564.486 338.876L564.486 339.26C561.124 340.073 557.703 340.618 554.255 340.89 554.561 340.326 554.724 339.695 554.728 339.053L554.728 323.989C554.764 323.989 554.798 324 554.835 324 555.663 324 556.335 323.328 556.335 322.5L556.335 314.5C556.335 313.672 555.663 313 554.835 313 554.007 313 553.335 313.672 553.335 314.5L552.335 314.5 552.335 312.5C552.335 311.672 551.663 311 550.835 311 550.007 311 549.335 311.672 549.335 312.5L549.335 314.5 548.335 314.5 548.335 310.5C548.335 309.672 547.663 309 546.835 309 546.007 309 545.335 309.672 545.335 310.5L545.335 314.5 544.335 314.5 544.335 312.5C544.335 311.672 543.663 311 542.835 311 542.007 311 541.335 311.672 541.335 312.5L541.335 314.5 540.335 314.5C540.335 313.672 539.663 313 538.835 313 538.007 313 537.335 313.672 537.335 314.5L537.335 316.5 504.942 316.5C503.937 316.478 503.061 317.179 502.862 318.164 502.676 319.253 503.409 320.286 504.498 320.472 504.609 320.491 504.722 320.5 504.835 320.5L537.335 320.5 537.335 322.5C537.335 323.328 538.007 324 538.835 324 539.663 324 540.335 323.328 540.335 322.5L541.335 322.5 541.335 324.5C541.335 325.328 542.007 326 542.835 326 542.852 326 542.868 326 542.885 326L542.885 333.88C542.861 334.959 543.663 335.879 544.736 336 545.528 336.058 546.279 335.642 546.65 334.941 546.679 334.894 546.74 334.879 546.787 334.907 546.814 334.923 546.832 334.951 546.835 334.982L546.835 339.058C546.835 339.832 547.064 340.59 547.493 341.234 540.913 341.395 534.339 340.738 527.921 339.28L527.921 338.913C529.763 338.024 533.9 336.891 539.834 336.385L539.834 330.361C529.499 331.167 521.927 333.873 521.927 337.061L521.9 344.842C519.076 346.116 517.436 347.625 517.436 349.242L517.336 391.766C517.335 396.293 530.309 400 546.167 400 562.025 400 575 396.293 575 391.762L575 349.238C575.037 347.6 573.372 346.072 570.486 344.786ZM566.151 364.834C559.636 366.576 552.909 367.397 546.167 367.273 539.454 367.399 532.756 366.589 526.267 364.866 524.568 364.359 523.406 362.794 523.412 361.021L523.43 350.783C523.664 350.649 523.97 350.489 524.366 350.311L527.884 348.723 527.896 345.423C533.904 346.669 540.028 347.277 546.164 347.237 547.031 347.237 547.895 347.226 548.758 347.203 548.983 347.493 549.165 347.814 549.3 348.156 549.606 348.989 549.761 349.869 549.759 350.756 549.803 354.163 549.016 355.47 547.692 357.726 547.21 358.429 546.928 359.251 546.878 360.102 546.879 362.254 548.622 363.998 550.774 364L550.788 364C552.94 363.997 554.682 362.252 554.682 360.1 554.631 359.249 554.35 358.427 553.867 357.724 552.543 355.468 551.756 354.161 551.8 350.754 551.798 349.867 551.953 348.987 552.259 348.154 552.428 347.731 552.67 347.341 552.974 347.002 556.845 346.76 560.693 346.232 564.486 345.422L564.486 348.678 568.044 350.264C568.444 350.444 568.761 350.605 568.999 350.74L568.999 361C569 362.767 567.843 364.325 566.151 364.834Z"/></g></g></g><text font-family="Gill Sans MT,Gill Sans MT_MSFontService,sans-serif" font-weight="400" font-size="24" transform="translate(479.906 445)">Public honeypot</text><text font-family="Gill Sans MT,Gill Sans MT_MSFontService,sans-serif" font-weight="400" font-size="24" transform="translate(483.479 474)">(mobile phone)</text></g></svg>