<svg width="1280" height="720" xmlns="http://www.w3.org/2000/svg" xmlns:xlink="http://www.w3.org/1999/xlink" overflow="hidden"><g><rect x="0" y="0" width="1280" height="720" fill="#FFFFFF" fill-opacity="0"/><rect x="47" y="48" width="389" height="10" fill="#3A2A5C"/><rect x="844" y="48" width="389" height="10" fill="#969FA7"/><rect x="445" y="48" width="389" height="10" fill="#59418F"/><text fill="#3A2A5C" font-family="Gill Sans MT,Gill Sans MT_MSFontService,sans-serif" font-weight="700" font-size="37" transform="translate(9.90772 41)">INTELLIGENCE</text><text fill="#3A2A5C" font-family="Gill Sans MT,Gill Sans MT_MSFontService,sans-serif" font-weight="700" font-size="37" transform="translate(321.574 41)">-</text><text fill="#3A2A5C" font-family="Gill Sans MT,Gill Sans MT_MSFontService,sans-serif" font-weight="700" font-size="37" transform="translate(344.408 41)">SCAM CATEGORIZATION</text><path d="M214 352.5 326 352.5 326 344 343 361 326 378 326 369.5 214 369.5Z" stroke="#281C41" stroke-width="2.33333" stroke-linecap="round" stroke-miterlimit="8" fill="#3A2A5C" fill-rule="evenodd"/><path d="M224.733 253.393 336.377 287.526 339.016 278.892 351.004 301.439 328.458 313.427 331.097 304.794 219.453 270.661Z" stroke="#281C41" stroke-width="2.33333" stroke-linecap="round" stroke-miterlimit="8" fill="#3A2A5C" fill-rule="evenodd"/><path d="M0 8.22303 113.524 8.22303 113.524 0 129.97 16.4461 113.524 32.892 113.524 24.6689 0 24.6689Z" stroke="#281C41" stroke-width="2.33333" stroke-linecap="round" stroke-miterlimit="8" fill="#3A2A5C" fill-rule="evenodd" transform="matrix(0.956305 -0.292372 -0.292372 -0.956305 227.486 479.269)"/><g><g><g><path d="M841 343 834.1 331 834.1 330.5C834.7 313.9 821.7 300 805.1 299.4 788.5 298.8 774.6 311.7 774 328.3 774 329 774 329.8 774 330.5 774 340 778.3 348.9 785.8 354.7L785.8 380 817.4 380 817.4 368 822.3 368C828.8 368 834.1 362.7 834.1 356.2 834.1 356.1 834.1 356.1 834.1 356L834.1 350 838.5 350C841.1 349.7 843.4 346.7 841 343ZM778.5 320.5 784 320.5 784 316.5C782.9 315.7 782.7 314.1 783.5 313 784.3 311.9 785.9 311.7 787 312.5 788.1 313.3 788.3 314.9 787.5 316 787.4 316.2 787.2 316.4 787 316.5L787 320.5 791 320.5 791 327.5C792.1 328.3 792.3 329.9 791.5 331 790.7 332.1 789.1 332.3 788 331.5 786.9 330.7 786.7 329.1 787.5 328 787.6 327.8 787.8 327.6 788 327.5L788 323.5 777.6 323.5C777.9 322.5 778.1 321.5 778.5 320.5ZM806.3 337.4C804.9 337.4 803.8 336.3 803.8 334.9 803.8 334.8 803.8 334.6 803.8 334.5L801.2 331.9 797 336.1 797 343.5C798.1 344.3 798.3 345.9 797.5 347 796.7 348.1 795.1 348.3 794 347.5 792.9 346.7 792.7 345.1 793.5 344 793.6 343.8 793.8 343.6 794 343.5L794 342.5 787.3 342.5 782.6 337C781.2 337.1 780 336.1 779.9 334.7 779.8 333.3 780.8 332.1 782.2 332 783.6 331.9 784.8 332.9 784.9 334.3 784.9 334.5 784.9 334.8 784.9 335L788.7 339.5 794 339.5 794 334.9 799.1 329.8 796 326.6 796 308.5C794.9 307.7 794.7 306.1 795.5 305 796.3 303.9 797.9 303.7 799 304.5 800.1 305.3 800.3 306.9 799.5 308 799.4 308.2 799.2 308.4 799 308.5L799 311.5 807 311.5 807 318.5C808.1 319.3 808.3 320.9 807.5 322 806.7 323.1 805.1 323.3 804 322.5 802.9 321.7 802.7 320.1 803.5 319 803.6 318.8 803.8 318.6 804 318.5L804 314.5 799 314.5 799 325.4 806 332.4C806.1 332.4 806.2 332.4 806.3 332.4 807.7 332.4 808.8 333.5 808.8 334.9 808.8 336.3 807.7 337.4 806.3 337.4L806.3 337.4ZM818.5 317.2C817.1 317.2 816 316.1 816 314.7 816 314.6 816 314.6 816 314.5L812 310.9 812 303.6C813 303.9 814 304.3 815 304.7L815 309.6 818 312.3C818.2 312.3 818.3 312.3 818.5 312.3 819.9 312.3 821 313.4 821 314.8 821 316.2 819.9 317.2 818.5 317.2L818.5 317.2Z"/></g></g></g><text font-family="Gill Sans MT,Gill Sans MT_MSFontService,sans-serif" font-weight="400" font-size="24" transform="translate(774.27 426)">APATE</text><text font-family="Gill Sans MT,Gill Sans MT_MSFontService,sans-serif" font-weight="400" font-size="24" transform="translate(747.357 455)">classification</text><path d="M903 338.75 1019.5 338.75 1019.5 331 1035 346.5 1019.5 362 1019.5 354.25 903 354.25Z" stroke="#281C41" stroke-width="2.33333" stroke-linecap="round" stroke-miterlimit="8" fill="#3A2A5C" fill-rule="evenodd"/><path d="M902.342 408.255 1017.84 443.565 1020.2 435.83 1030.94 456.03 1010.74 466.771 1013.11 459.036 897.612 423.726Z" stroke="#281C41" stroke-width="2.33333" stroke-linecap="round" stroke-miterlimit="8" fill="#3A2A5C" fill-rule="evenodd"/><path d="M0 7.82031 111.644 7.82031 111.644 0 127.285 15.6406 111.644 31.2813 111.644 23.4609 0 23.4609Z" stroke="#281C41" stroke-width="2.33333" stroke-linecap="round" stroke-miterlimit="8" fill="#3A2A5C" fill-rule="evenodd" transform="matrix(0.956305 -0.292372 -0.292372 -0.956305 904.484 298.496)"/><g><g><g><path d="M108.873 86.8962C106.071 84.412 101.877 84.3353 98.9858 86.7154L94.6021 82.3331C107.116 68.6806 106.192 47.4689 92.54 34.9552 78.8875 22.4417 57.6758 23.3648 45.1621 37.0173 32.6486 50.6698 33.5717 71.8815 47.2242 84.3952 60.0443 96.1459 79.7199 96.1459 92.54 84.3952L96.915 88.7702C95.9547 90.0522 95.3658 91.574 95.2131 93.1685 94.9907 95.1806 95.6829 97.1862 97.0988 98.6329L113.181 114.742C114.461 116.002 116.193 116.696 117.989 116.667 122.569 116.525 126.344 113.03 126.839 108.475 127.061 106.463 126.369 104.457 124.953 103.009ZM48.3292 81.3546C36.3911 69.4164 36.3913 50.0608 48.3296 38.1227 60.2678 26.1847 79.6234 26.1848 91.5615 38.123 103.499 50.0612 103.499 69.4165 91.5615 81.3546 79.7841 93.2925 60.5592 93.4226 48.6213 81.6452 48.5233 81.5485 48.4259 81.4511 48.3292 81.3531ZM122.121 111.93C120.014 114.031 116.929 114.37 115.246 112.683L99.1667 96.5738C98.3649 95.7317 97.9818 94.5751 98.1225 93.4208 98.2718 92.0087 98.9137 90.6942 99.9352 89.7079 101.019 88.5844 102.5 87.9296 104.061 87.8835 105.084 87.8579 106.074 88.2452 106.808 88.9583L122.888 105.063C123.69 105.905 124.074 107.062 123.932 108.217 123.783 109.629 123.142 110.943 122.119 111.929Z" transform="matrix(1.01429 0 0 1 1063 105)"/><path d="M70 68.5417C78.0541 68.5417 84.5833 62.0124 84.5833 53.9583 84.5833 45.9043 78.0541 39.375 70 39.375 61.9459 39.375 55.4167 45.9043 55.4167 53.9583 55.4167 62.0124 61.9459 68.5417 70 68.5417ZM70 42.2917C76.4434 42.2917 81.6667 47.515 81.6667 53.9583 81.6667 60.4017 76.4434 65.625 70 65.625 63.5566 65.625 58.3333 60.4017 58.3333 53.9583 58.339 47.5173 63.559 42.2974 70 42.2917Z" transform="matrix(1.01429 0 0 1 1063 105)"/><path d="M83.0521 73.4344C78.8229 72.1347 74.4244 71.4688 70 71.4583 62.4374 71.584 55.0043 73.4409 48.2708 76.8863 48.8951 77.6778 49.5616 78.4353 50.2673 79.1554 56.4113 76.1246 63.1502 74.492 70 74.375 74.1469 74.387 78.269 75.0132 82.2325 76.2329 84.8051 76.9624 87.3157 77.8957 89.74 79.0242 90.4439 78.3005 91.1079 77.5391 91.7292 76.7433 88.941 75.3845 86.0371 74.2771 83.0521 73.4344Z" transform="matrix(1.01429 0 0 1 1063 105)"/><path d="M105 33.9019C110.638 33.9245 115.19 38.5133 115.167 44.151 115.148 48.8406 111.937 52.914 107.381 54.0269 107.527 54.9938 107.625 55.9723 107.696 56.9567 114.799 55.5071 119.381 48.5745 117.932 41.4721 116.482 34.3699 109.55 29.7873 102.447 31.2369 100.575 31.6191 98.8079 32.4056 97.2708 33.5417 97.9475 34.246 98.6008 34.9679 99.2162 35.7146 100.913 34.5332 102.932 33.9006 105 33.9019Z" transform="matrix(1.01429 0 0 1 1063 105)"/><path d="M128.236 69.0185C124.498 66.137 120.215 64.0426 115.646 62.8615 113.082 62.0807 110.442 61.5781 107.771 61.3623 107.73 62.3394 107.647 63.3077 107.532 64.2688 110.005 64.4701 112.45 64.9365 114.823 65.66 119.022 66.7355 122.959 68.6493 126.398 71.2863 127.584 72.2035 128.295 73.6054 128.333 75.1042L128.333 87.5 131.25 87.5 131.25 75.1042C131.21 72.7259 130.103 70.4916 128.236 69.0185Z" transform="matrix(1.01429 0 0 1 1063 105)"/><path d="M35 33.9019C37.0401 33.9016 39.0327 34.5177 40.7167 35.6694 41.3335 34.9212 41.9898 34.1994 42.6694 33.495 36.7999 29.2537 28.6035 30.5737 24.3622 36.4432 20.1211 42.3127 21.441 50.5091 27.3105 54.7504 28.7715 55.806 30.4345 56.5492 32.1956 56.9333 32.2671 55.9504 32.3677 54.9733 32.5135 54.005 27.0487 52.6186 23.7427 47.0645 25.1293 41.5997 26.2757 37.0809 30.338 33.9128 35 33.9019Z" transform="matrix(1.01429 0 0 1 1063 105)"/><path d="M24.3717 62.8542C19.8564 64.1799 15.598 66.2607 11.7775 69.0083 9.90319 70.4818 8.79137 72.7204 8.75 75.1042L8.75 87.5 11.6667 87.5 11.6667 75.1042C11.6996 73.628 12.3887 72.2435 13.5465 71.3271 17.0705 68.8007 20.9955 66.8866 25.1562 65.6658 27.5148 65.0029 29.9269 64.5471 32.3648 64.3038 32.2496 63.3427 32.165 62.3744 32.1227 61.3988 29.5014 61.6561 26.9079 62.1432 24.3717 62.8542Z" transform="matrix(1.01429 0 0 1 1063 105)"/><path d="M43.75 95.1635 43.75 104.643 46.6667 104.643 46.6667 95.1635C46.6987 93.6864 47.388 92.3005 48.5465 91.3835 48.6413 91.3135 48.7492 91.2523 48.8381 91.1838 48.0054 90.6223 47.196 90.0171 46.4056 89.3915 44.7491 90.8572 43.7853 92.952 43.75 95.1635Z" transform="matrix(1.01429 0 0 1 1063 105)"/></g></g></g><text font-family="Gill Sans MT,Gill Sans MT_MSFontService,sans-serif" font-weight="400" font-size="24" transform="translate(1090.34 250)">ATO scam</text><g><g><g><path d="M108.873 86.8962C106.071 84.412 101.877 84.3353 98.9858 86.7154L94.6021 82.3331C107.116 68.6806 106.192 47.4689 92.54 34.9552 78.8875 22.4417 57.6758 23.3648 45.1621 37.0173 32.6486 50.6698 33.5717 71.8815 47.2242 84.3952 60.0443 96.1459 79.7199 96.1459 92.54 84.3952L96.915 88.7702C95.9547 90.0522 95.3658 91.574 95.2131 93.1685 94.9907 95.1806 95.6829 97.1862 97.0988 98.6329L113.181 114.742C114.461 116.002 116.193 116.696 117.989 116.667 122.569 116.525 126.344 113.03 126.839 108.475 127.061 106.463 126.369 104.457 124.953 103.009ZM48.3292 81.3546C36.3911 69.4164 36.3913 50.0608 48.3296 38.1227 60.2678 26.1847 79.6234 26.1848 91.5615 38.123 103.499 50.0612 103.499 69.4165 91.5615 81.3546 79.7841 93.2925 60.5592 93.4226 48.6213 81.6452 48.5233 81.5485 48.4259 81.4511 48.3292 81.3531ZM122.121 111.93C120.014 114.031 116.929 114.37 115.246 112.683L99.1667 96.5738C98.3649 95.7317 97.9818 94.5751 98.1225 93.4208 98.2718 92.0087 98.9137 90.6942 99.9352 89.7079 101.019 88.5844 102.5 87.9296 104.061 87.8835 105.084 87.8579 106.074 88.2452 106.808 88.9583L122.888 105.063C123.69 105.905 124.074 107.062 123.932 108.217 123.783 109.629 123.142 110.943 122.119 111.929Z" transform="matrix(1.00714 0 0 1 1066 258)"/><path d="M70 68.5417C78.0541 68.5417 84.5833 62.0124 84.5833 53.9583 84.5833 45.9043 78.0541 39.375 70 39.375 61.9459 39.375 55.4167 45.9043 55.4167 53.9583 55.4167 62.0124 61.9459 68.5417 70 68.5417ZM70 42.2917C76.4434 42.2917 81.6667 47.515 81.6667 53.9583 81.6667 60.4017 76.4434 65.625 70 65.625 63.5566 65.625 58.3333 60.4017 58.3333 53.9583 58.339 47.5173 63.559 42.2974 70 42.2917Z" transform="matrix(1.00714 0 0 1 1066 258)"/><path d="M83.0521 73.4344C78.8229 72.1347 74.4244 71.4688 70 71.4583 62.4374 71.584 55.0043 73.4409 48.2708 76.8863 48.8951 77.6778 49.5616 78.4353 50.2673 79.1554 56.4113 76.1246 63.1502 74.492 70 74.375 74.1469 74.387 78.269 75.0132 82.2325 76.2329 84.8051 76.9624 87.3157 77.8957 89.74 79.0242 90.4439 78.3005 91.1079 77.5391 91.7292 76.7433 88.941 75.3845 86.0371 74.2771 83.0521 73.4344Z" transform="matrix(1.00714 0 0 1 1066 258)"/><path d="M105 33.9019C110.638 33.9245 115.19 38.5133 115.167 44.151 115.148 48.8406 111.937 52.914 107.381 54.0269 107.527 54.9938 107.625 55.9723 107.696 56.9567 114.799 55.5071 119.381 48.5745 117.932 41.4721 116.482 34.3699 109.55 29.7873 102.447 31.2369 100.575 31.6191 98.8079 32.4056 97.2708 33.5417 97.9475 34.246 98.6008 34.9679 99.2162 35.7146 100.913 34.5332 102.932 33.9006 105 33.9019Z" transform="matrix(1.00714 0 0 1 1066 258)"/><path d="M128.236 69.0185C124.498 66.137 120.215 64.0426 115.646 62.8615 113.082 62.0807 110.442 61.5781 107.771 61.3623 107.73 62.3394 107.647 63.3077 107.532 64.2688 110.005 64.4701 112.45 64.9365 114.823 65.66 119.022 66.7355 122.959 68.6493 126.398 71.2863 127.584 72.2035 128.295 73.6054 128.333 75.1042L128.333 87.5 131.25 87.5 131.25 75.1042C131.21 72.7259 130.103 70.4916 128.236 69.0185Z" transform="matrix(1.00714 0 0 1 1066 258)"/><path d="M35 33.9019C37.0401 33.9016 39.0327 34.5177 40.7167 35.6694 41.3335 34.9212 41.9898 34.1994 42.6694 33.495 36.7999 29.2537 28.6035 30.5737 24.3622 36.4432 20.1211 42.3127 21.441 50.5091 27.3105 54.7504 28.7715 55.806 30.4345 56.5492 32.1956 56.9333 32.2671 55.9504 32.3677 54.9733 32.5135 54.005 27.0487 52.6186 23.7427 47.0645 25.1293 41.5997 26.2757 37.0809 30.338 33.9128 35 33.9019Z" transform="matrix(1.00714 0 0 1 1066 258)"/><path d="M24.3717 62.8542C19.8564 64.1799 15.598 66.2607 11.7775 69.0083 9.90319 70.4818 8.79137 72.7204 8.75 75.1042L8.75 87.5 11.6667 87.5 11.6667 75.1042C11.6996 73.628 12.3887 72.2435 13.5465 71.3271 17.0705 68.8007 20.9955 66.8866 25.1562 65.6658 27.5148 65.0029 29.9269 64.5471 32.3648 64.3038 32.2496 63.3427 32.165 62.3744 32.1227 61.3988 29.5014 61.6561 26.9079 62.1432 24.3717 62.8542Z" transform="matrix(1.00714 0 0 1 1066 258)"/><path d="M43.75 95.1635 43.75 104.643 46.6667 104.643 46.6667 95.1635C46.6987 93.6864 47.388 92.3005 48.5465 91.3835 48.6413 91.3135 48.7492 91.2523 48.8381 91.1838 48.0054 90.6223 47.196 90.0171 46.4056 89.3915 44.7491 90.8572 43.7853 92.952 43.75 95.1635Z" transform="matrix(1.00714 0 0 1 1066 258)"/></g></g></g><text font-family="Gill Sans MT,Gill Sans MT_MSFontService,sans-serif" font-weight="400" font-size="24" transform="translate(1069.94 407)">Support scam</text><g><g><g><path d="M108.873 86.8962C106.071 84.412 101.877 84.3353 98.9858 86.7154L94.6021 82.3331C107.116 68.6806 106.192 47.4689 92.54 34.9552 78.8875 22.4417 57.6758 23.3648 45.1621 37.0173 32.6486 50.6698 33.5717 71.8815 47.2242 84.3952 60.0443 96.1459 79.7199 96.1459 92.54 84.3952L96.915 88.7702C95.9547 90.0522 95.3658 91.574 95.2131 93.1685 94.9907 95.1806 95.6829 97.1862 97.0988 98.6329L113.181 114.742C114.461 116.002 116.193 116.696 117.989 116.667 122.569 116.525 126.344 113.03 126.839 108.475 127.061 106.463 126.369 104.457 124.953 103.009ZM48.3292 81.3546C36.3911 69.4164 36.3913 50.0608 48.3296 38.1227 60.2678 26.1847 79.6234 26.1848 91.5615 38.123 103.499 50.0612 103.499 69.4165 91.5615 81.3546 79.7841 93.2925 60.5592 93.4226 48.6213 81.6452 48.5233 81.5485 48.4259 81.4511 48.3292 81.3531ZM122.121 111.93C120.014 114.031 116.929 114.37 115.246 112.683L99.1667 96.5738C98.3649 95.7317 97.9818 94.5751 98.1225 93.4208 98.2718 92.0087 98.9137 90.6942 99.9352 89.7079 101.019 88.5844 102.5 87.9296 104.061 87.8835 105.084 87.8579 106.074 88.2452 106.808 88.9583L122.888 105.063C123.69 105.905 124.074 107.062 123.932 108.217 123.783 109.629 123.142 110.943 122.119 111.929Z" transform="matrix(1.00714 0 0 1 1066 411)"/><path d="M70 68.5417C78.0541 68.5417 84.5833 62.0124 84.5833 53.9583 84.5833 45.9043 78.0541 39.375 70 39.375 61.9459 39.375 55.4167 45.9043 55.4167 53.9583 55.4167 62.0124 61.9459 68.5417 70 68.5417ZM70 42.2917C76.4434 42.2917 81.6667 47.515 81.6667 53.9583 81.6667 60.4017 76.4434 65.625 70 65.625 63.5566 65.625 58.3333 60.4017 58.3333 53.9583 58.339 47.5173 63.559 42.2974 70 42.2917Z" transform="matrix(1.00714 0 0 1 1066 411)"/><path d="M83.0521 73.4344C78.8229 72.1347 74.4244 71.4688 70 71.4583 62.4374 71.584 55.0043 73.4409 48.2708 76.8863 48.8951 77.6778 49.5616 78.4353 50.2673 79.1554 56.4113 76.1246 63.1502 74.492 70 74.375 74.1469 74.387 78.269 75.0132 82.2325 76.2329 84.8051 76.9624 87.3157 77.8957 89.74 79.0242 90.4439 78.3005 91.1079 77.5391 91.7292 76.7433 88.941 75.3845 86.0371 74.2771 83.0521 73.4344Z" transform="matrix(1.00714 0 0 1 1066 411)"/><path d="M105 33.9019C110.638 33.9245 115.19 38.5133 115.167 44.151 115.148 48.8406 111.937 52.914 107.381 54.0269 107.527 54.9938 107.625 55.9723 107.696 56.9567 114.799 55.5071 119.381 48.5745 117.932 41.4721 116.482 34.3699 109.55 29.7873 102.447 31.2369 100.575 31.6191 98.8079 32.4056 97.2708 33.5417 97.9475 34.246 98.6008 34.9679 99.2162 35.7146 100.913 34.5332 102.932 33.9006 105 33.9019Z" transform="matrix(1.00714 0 0 1 1066 411)"/><path d="M128.236 69.0185C124.498 66.137 120.215 64.0426 115.646 62.8615 113.082 62.0807 110.442 61.5781 107.771 61.3623 107.73 62.3394 107.647 63.3077 107.532 64.2688 110.005 64.4701 112.45 64.9365 114.823 65.66 119.022 66.7355 122.959 68.6493 126.398 71.2863 127.584 72.2035 128.295 73.6054 128.333 75.1042L128.333 87.5 131.25 87.5 131.25 75.1042C131.21 72.7259 130.103 70.4916 128.236 69.0185Z" transform="matrix(1.00714 0 0 1 1066 411)"/><path d="M35 33.9019C37.0401 33.9016 39.0327 34.5177 40.7167 35.6694 41.3335 34.9212 41.9898 34.1994 42.6694 33.495 36.7999 29.2537 28.6035 30.5737 24.3622 36.4432 20.1211 42.3127 21.441 50.5091 27.3105 54.7504 28.7715 55.806 30.4345 56.5492 32.1956 56.9333 32.2671 55.9504 32.3677 54.9733 32.5135 54.005 27.0487 52.6186 23.7427 47.0645 25.1293 41.5997 26.2757 37.0809 30.338 33.9128 35 33.9019Z" transform="matrix(1.00714 0 0 1 1066 411)"/><path d="M24.3717 62.8542C19.8564 64.1799 15.598 66.2607 11.7775 69.0083 9.90319 70.4818 8.79137 72.7204 8.75 75.1042L8.75 87.5 11.6667 87.5 11.6667 75.1042C11.6996 73.628 12.3887 72.2435 13.5465 71.3271 17.0705 68.8007 20.9955 66.8866 25.1562 65.6658 27.5148 65.0029 29.9269 64.5471 32.3648 64.3038 32.2496 63.3427 32.165 62.3744 32.1227 61.3988 29.5014 61.6561 26.9079 62.1432 24.3717 62.8542Z" transform="matrix(1.00714 0 0 1 1066 411)"/><path d="M43.75 95.1635 43.75 104.643 46.6667 104.643 46.6667 95.1635C46.6987 93.6864 47.388 92.3005 48.5465 91.3835 48.6413 91.3135 48.7492 91.2523 48.8381 91.1838 48.0054 90.6223 47.196 90.0171 46.4056 89.3915 44.7491 90.8572 43.7853 92.952 43.75 95.1635Z" transform="matrix(1.00714 0 0 1 1066 411)"/></g></g></g><text font-family="Gill Sans MT,Gill Sans MT_MSFontService,sans-serif" font-weight="700" font-size="32" transform="translate(465.452 634)">Real time classification</text><g><g><g><path d="M138.2 236.337C134.579 233.375 129.971 231.4 125.363 230.083 122.071 229.096 118.45 228.438 114.5 228.438 110.879 228.438 107.258 229.096 103.637 230.083 99.0292 231.4 94.4208 233.704 90.8 236.337 89.1542 237.654 88.1667 239.629 88.1667 241.604L88.1667 254.771 140.833 254.771 140.833 241.604C140.833 239.629 139.846 237.654 138.2 236.337Z"/><path d="M101.663 200.788C102.156 200.788 102.568 200.623 102.815 200.294L102.815 200.294C105.859 197.331 109.974 195.521 114.5 195.521 123.552 195.521 130.958 202.927 130.958 211.979L130.958 215.765 121.495 218.892C121.083 218.727 120.672 218.562 120.26 218.562 118.861 218.562 117.792 219.632 117.792 221.031 117.792 222.43 118.861 223.5 120.26 223.5 121.248 223.5 122.153 222.924 122.565 222.019L135.649 217.657C136.307 217.41 136.801 216.834 136.801 216.094L136.801 208.688C136.801 207.782 136.06 207.042 135.155 207.042L133.674 207.042C131.452 198.566 123.717 192.229 114.5 192.229 109.151 192.229 104.296 194.369 100.675 197.825 100.264 198.154 100.017 198.566 100.017 199.142 100.017 200.047 100.757 200.788 101.663 200.788Z"/><path d="M127.584 213.378C127.667 212.884 127.667 212.473 127.667 211.979 127.667 204.738 121.742 198.812 114.5 198.812 107.258 198.812 101.333 204.738 101.333 211.979 101.333 219.221 107.258 225.146 114.5 225.146 114.747 225.146 115.076 225.146 115.323 225.064L115.323 221.031 115.323 221.031C115.323 220.291 115.488 219.55 115.817 218.809 116.393 217.657 117.38 216.752 118.697 216.341L127.584 213.378Z"/></g></g></g><text font-family="Gill Sans MT,Gill Sans MT_MSFontService,sans-serif" font-weight="400" font-size="24" transform="translate(57.856 286)">Scammer</text><text font-family="Gill Sans MT,Gill Sans MT_MSFontService,sans-serif" font-weight="400" font-size="24" transform="translate(151.789 286)">A</text><g><g><g><path d="M138.2 361.337C134.579 358.375 129.971 356.4 125.363 355.083 122.071 354.096 118.45 353.438 114.5 353.438 110.879 353.438 107.258 354.096 103.637 355.083 99.0292 356.4 94.4208 358.704 90.8 361.337 89.1542 362.654 88.1667 364.629 88.1667 366.604L88.1667 379.771 140.833 379.771 140.833 366.604C140.833 364.629 139.846 362.654 138.2 361.337Z"/><path d="M101.663 325.788C102.156 325.788 102.568 325.623 102.815 325.294L102.815 325.294C105.859 322.331 109.974 320.521 114.5 320.521 123.552 320.521 130.958 327.927 130.958 336.979L130.958 340.765 121.495 343.892C121.083 343.727 120.672 343.562 120.26 343.562 118.861 343.562 117.792 344.632 117.792 346.031 117.792 347.43 118.861 348.5 120.26 348.5 121.248 348.5 122.153 347.924 122.565 347.019L135.649 342.657C136.307 342.41 136.801 341.834 136.801 341.094L136.801 333.688C136.801 332.782 136.06 332.042 135.155 332.042L133.674 332.042C131.452 323.566 123.717 317.229 114.5 317.229 109.151 317.229 104.296 319.369 100.675 322.825 100.264 323.154 100.017 323.566 100.017 324.142 100.017 325.047 100.757 325.788 101.663 325.788Z"/><path d="M127.584 338.378C127.667 337.884 127.667 337.473 127.667 336.979 127.667 329.737 121.742 323.812 114.5 323.812 107.258 323.812 101.333 329.737 101.333 336.979 101.333 344.221 107.258 350.146 114.5 350.146 114.747 350.146 115.076 350.146 115.323 350.064L115.323 346.031 115.323 346.031C115.323 345.291 115.488 344.55 115.817 343.809 116.393 342.657 117.38 341.752 118.697 341.341L127.584 338.378Z"/></g></g></g><text font-family="Gill Sans MT,Gill Sans MT_MSFontService,sans-serif" font-weight="400" font-size="24" transform="translate(57.1115 411)">Scammer B</text><g><g><g><path d="M62.4 51.675C58.825 48.75 54.275 46.8 49.725 45.5 46.475 44.525 42.9 43.875 39 43.875 35.425 43.875 31.85 44.525 28.275 45.5 23.725 46.8 19.175 49.075 15.6 51.675 13.975 52.975 13 54.925 13 56.875L13 69.875 65 69.875 65 56.875C65 54.925 64.025 52.975 62.4 51.675Z" transform="matrix(1.01282 0 0 1 75 441)"/><path d="M26.325 16.575C26.8125 16.575 27.2188 16.4125 27.4625 16.0875L27.4625 16.0875C30.4688 13.1625 34.5312 11.375 39 11.375 47.9375 11.375 55.25 18.6875 55.25 27.625L55.25 31.3625 45.9062 34.45C45.5 34.2875 45.0938 34.125 44.6875 34.125 43.3062 34.125 42.25 35.1812 42.25 36.5625 42.25 37.9438 43.3062 39 44.6875 39 45.6625 39 46.5562 38.4312 46.9625 37.5375L59.8812 33.2313C60.5312 32.9875 61.0187 32.4188 61.0187 31.6875L61.0187 24.375C61.0187 23.4812 60.2875 22.75 59.3937 22.75L57.9313 22.75C55.7375 14.3813 48.1 8.125 39 8.125 33.7188 8.125 28.925 10.2375 25.35 13.65 24.9438 13.975 24.7 14.3813 24.7 14.95 24.7 15.8438 25.4312 16.575 26.325 16.575Z" transform="matrix(1.01282 0 0 1 75 441)"/><path d="M51.9188 29.0063C52 28.5187 52 28.1125 52 27.625 52 20.475 46.15 14.625 39 14.625 31.85 14.625 26 20.475 26 27.625 26 34.775 31.85 40.625 39 40.625 39.2437 40.625 39.5688 40.625 39.8125 40.5438L39.8125 36.5625 39.8125 36.5625C39.8125 35.8312 39.975 35.1 40.3 34.3687 40.8687 33.2313 41.8438 32.3375 43.1437 31.9312L51.9188 29.0063Z" transform="matrix(1.01282 0 0 1 75 441)"/></g></g></g><text font-family="Gill Sans MT,Gill Sans MT_MSFontService,sans-serif" font-weight="400" font-size="24" transform="translate(55.7875 543)">Scammer</text><text font-family="Gill Sans MT,Gill Sans MT_MSFontService,sans-serif" font-weight="400" font-size="24" transform="translate(55.7875 572)">C</text><path d="M478 355 533 300 533 327.5 693 327.5 693 300 748 355 693 410 693 382.5 533 382.5 533 410Z" stroke="#281C41" stroke-width="2.33333" stroke-linecap="round" stroke-linejoin="round" stroke-miterlimit="10" fill="#3A2A5C" fill-rule="evenodd"/><text fill="#FFFFFF" font-family="Gill Sans MT,Gill Sans MT_MSFontService,sans-serif" font-weight="400" font-size="24" transform="translate(539.145 364)">APATE pipeline</text><g><g><g><path d="M74.0958 36.6052 74.0958 29.1235C74.1539 26.5767 69.191 24.3476 61.8402 23.2045L61.8402 29.0993C64.0534 29.4237 66.2176 30.0218 68.2833 30.8799L68.2833 31.2519C65.0265 32.0392 61.7123 32.5671 58.372 32.8309 58.6687 32.2844 58.8261 31.6732 58.8302 31.0513L58.8302 16.4581C58.8651 16.4581 58.8981 16.4688 58.9339 16.4688 59.7364 16.4688 60.387 15.8181 60.387 15.0156L60.387 7.26562C60.387 6.46308 59.7364 5.8125 58.9339 5.8125 58.1314 5.8125 57.4808 6.46308 57.4808 7.26562L56.512 7.26562 56.512 5.32812C56.512 4.52558 55.8614 3.875 55.0589 3.875 54.2564 3.875 53.6058 4.52558 53.6058 5.32812L53.6058 7.26562 52.637 7.26562 52.637 3.39062C52.637 2.58808 51.9864 1.9375 51.1839 1.9375 50.3814 1.9375 49.7308 2.58808 49.7308 3.39062L49.7308 7.26562 48.762 7.26562 48.762 5.32812C48.762 4.52558 48.1114 3.875 47.3089 3.875 46.5064 3.875 45.8558 4.52558 45.8558 5.32812L45.8558 7.26562 44.887 7.26562C44.887 6.46308 44.2364 5.8125 43.4339 5.8125 42.6314 5.8125 41.9808 6.46308 41.9808 7.26562L41.9808 9.20312 10.6001 9.20312C9.62663 9.18153 8.77768 9.86071 8.58506 10.8151 8.40529 11.87 9.11468 12.8708 10.1695 13.0506 10.2775 13.069 10.3868 13.0782 10.4964 13.0781L41.9808 13.0781 41.9808 15.0156C41.9808 15.8181 42.6314 16.4688 43.4339 16.4688 44.2364 16.4688 44.887 15.8181 44.887 15.0156L45.8558 15.0156 45.8558 16.9531C45.8558 17.7556 46.5064 18.4062 47.3089 18.4062 47.3254 18.4062 47.3409 18.4062 47.3573 18.4062L47.3573 26.04C47.3337 27.0854 48.1114 27.9762 49.1505 28.0938 49.9174 28.15 50.645 27.7474 51.0047 27.0678 51.0324 27.022 51.092 27.0074 51.1377 27.0351 51.1636 27.0507 51.1807 27.0775 51.1839 27.1076L51.1839 31.0562C51.1836 31.8064 51.4055 32.5398 51.8213 33.1642 45.4473 33.3197 39.0785 32.6838 32.861 31.2712L32.861 30.9157C34.6454 30.0545 38.6531 28.9569 44.4017 28.4667L44.4017 22.631C34.3897 23.4118 27.0543 26.0332 27.0543 29.1216L27.0281 36.6594C24.2924 37.8936 22.7036 39.3555 22.7036 40.9219L22.6068 82.1171C22.6058 86.5026 35.1743 90.0938 50.5368 90.0938 65.8992 90.0938 78.4688 86.5026 78.4688 82.1132L78.4688 40.9181C78.5046 39.3312 76.8916 37.851 74.0958 36.6052ZM69.8963 56.0267C63.5851 57.7142 57.0686 58.5096 50.5368 58.3895 44.0337 58.5112 37.5453 57.7265 31.2587 56.0577 29.6132 55.5661 28.4875 54.0501 28.4929 52.3328L28.5103 42.4148C28.737 42.285 29.0334 42.13 29.4171 41.9575L32.8251 40.4192 32.8368 37.2223C38.6574 38.4298 44.5894 39.0188 50.5339 38.9796 51.3735 38.9796 52.2111 38.9686 53.0468 38.9467 53.2647 39.228 53.4415 39.5389 53.5719 39.8699 53.8683 40.6765 54.0189 41.5293 54.0165 42.3886 54.0592 45.6892 53.2967 46.9553 52.0141 49.1408 51.5469 49.8221 51.2743 50.6179 51.2256 51.4426 51.2266 53.5269 52.9154 55.2166 54.9998 55.2188L55.0134 55.2188C57.0977 55.2156 58.7857 53.525 58.7857 51.4406 58.7367 50.6158 58.4637 49.8201 57.9962 49.1389 56.7135 46.9534 55.9511 45.6872 55.9937 42.3867 55.9914 41.5274 56.142 40.6745 56.4384 39.8679 56.6023 39.4584 56.8368 39.0806 57.1311 38.7519 60.8812 38.5179 64.6088 38.0063 68.2833 37.2213L68.2833 40.3756 71.7301 41.912C72.1176 42.0864 72.4247 42.2423 72.6553 42.3731L72.6553 52.3125C72.6567 54.024 71.5353 55.5338 69.8963 56.0267Z" transform="matrix(1 0 0 1.03226 378 307)"/></g></g></g><text font-family="Gill Sans MT,Gill Sans MT_MSFontService,sans-serif" font-weight="400" font-size="24" transform="translate(354.805 445)">Public honeypot</text><text font-family="Gill Sans MT,Gill Sans MT_MSFontService,sans-serif" font-weight="400" font-size="24" transform="translate(358.379 474)">(mobile phone)</text></g></svg>