<svg id="Layer_1" data-name="Layer 1" xmlns="http://www.w3.org/2000/svg" viewBox="0 0 640 75"><defs><style>.cls-1{fill:#003e46;}</style></defs><path class="cls-1" d="M109.4,44,105,34h-.17l-4.36,9.74a7.63,7.63,0,0,1-1,1.85,1.86,1.86,0,0,1-1.08.54v.33h4.06v-.33a3.39,3.39,0,0,1-1.2-.22.82.82,0,0,1-.41-.76,2.64,2.64,0,0,1,.25-1l.51-1.18h4.32l.64,1.52a5.7,5.7,0,0,1,.27.68,1,1,0,0,1,.06.32.52.52,0,0,1-.2.42,1.87,1.87,0,0,1-1,.2h-.24v.33h5.9v-.33a1.38,1.38,0,0,1-.86-.33A6,6,0,0,1,109.4,44Zm-7.53-1.69,1.87-4.2,1.82,4.2Z"/><path class="cls-1" d="M118.79,44.62V38h-3.43v.34a1.06,1.06,0,0,1,.73.3,2.54,2.54,0,0,1,.17,1.19v4.5a3.79,3.79,0,0,1-.86,1,1.06,1.06,0,0,1-.58.17.77.77,0,0,1-.44-.14.81.81,0,0,1-.27-.39,5.44,5.44,0,0,1-.08-1.17V38H110.6v.34a1,1,0,0,1,.73.3,2.37,2.37,0,0,1,.18,1.19V43.2a7.71,7.71,0,0,0,.19,2,2.16,2.16,0,0,0,.74,1,2,2,0,0,0,1.27.43,2.89,2.89,0,0,0,1.35-.32,4.23,4.23,0,0,0,1.2-1.06v1.13h3.43v-.32a1.05,1.05,0,0,1-.72-.3A2.44,2.44,0,0,1,118.79,44.62Z"/><path class="cls-1" d="M124,41a8.52,8.52,0,0,1-1.61-1.27.7.7,0,0,1-.18-.46.73.73,0,0,1,.26-.57.85.85,0,0,1,.63-.25,1.83,1.83,0,0,1,1.17.47,4.45,4.45,0,0,1,1.14,1.74h.31l-.14-2.87h-.3a2,2,0,0,1-.32.39.48.48,0,0,1-.26.06,1.07,1.07,0,0,1-.4-.13,2.7,2.7,0,0,0-1.32-.34,2.44,2.44,0,0,0-1.94.79,2.64,2.64,0,0,0-.67,1.76A2.51,2.51,0,0,0,121,42a9.74,9.74,0,0,0,1.78,1.46,6.83,6.83,0,0,1,1.2.95,1.11,1.11,0,0,1,.27.75.88.88,0,0,1-.28.65,1,1,0,0,1-.7.26,2.15,2.15,0,0,1-1.34-.6,4,4,0,0,1-1.1-1.78h-.31l.14,3h.3c.13-.3.3-.45.49-.45a1.31,1.31,0,0,1,.37.11,5,5,0,0,0,1.61.37,2.86,2.86,0,0,0,1.42-.36,2.52,2.52,0,0,0,1-1,3,3,0,0,0,.35-1.38,2.48,2.48,0,0,0-.42-1.4A6.87,6.87,0,0,0,124,41Z"/><path class="cls-1" d="M130,35h-.29a10.31,10.31,0,0,1-1.4,2,11.58,11.58,0,0,1-1.93,1.68v.32h1.1v4.54a8.59,8.59,0,0,0,.09,1.66,2,2,0,0,0,.71,1,2.13,2.13,0,0,0,1.36.43A2.46,2.46,0,0,0,132,44.84l-.27-.2c-.35.59-.72.89-1.11.89a.55.55,0,0,1-.31-.12.76.76,0,0,1-.25-.34,4.59,4.59,0,0,1-.06-1V38.93h2V38h-2Z"/><path class="cls-1" d="M138.83,37.78a2.1,2.1,0,0,0-1.21.43,5.92,5.92,0,0,0-1.47,1.73V38h-3.44v.34a1.21,1.21,0,0,1,.6.16.71.71,0,0,1,.27.37,4,4,0,0,1,.07.92v4.65a3,3,0,0,1-.2,1.36,1,1,0,0,1-.74.3v.32h4.55v-.32a2,2,0,0,1-.72-.14.81.81,0,0,1-.32-.36,2.13,2.13,0,0,1-.06-.66V42.53a6.45,6.45,0,0,1,.28-1.92,1.84,1.84,0,0,1,.57-.87.7.7,0,0,1,.49-.2.46.46,0,0,1,.21.05,4.74,4.74,0,0,1,.41.34,1.26,1.26,0,0,0,.83.31.89.89,0,0,0,.7-.33,1.38,1.38,0,0,0,.3-.94,1.14,1.14,0,0,0-.31-.87A1,1,0,0,0,138.83,37.78Z"/><path class="cls-1" d="M147.46,45.41a.31.31,0,0,1-.2-.07.39.39,0,0,1-.14-.21,3.63,3.63,0,0,1,0-.73V41.13a8,8,0,0,0-.13-1.74,2.41,2.41,0,0,0-.91-1.1,3.12,3.12,0,0,0-1.89-.51,5.84,5.84,0,0,0-1.91.32,3.26,3.26,0,0,0-1.43.9,1.83,1.83,0,0,0-.51,1.24,1,1,0,0,0,.37.8,1.39,1.39,0,0,0,1,.34,1.19,1.19,0,0,0,.85-.3,1,1,0,0,0,.34-.76,1.17,1.17,0,0,0-.35-.75.8.8,0,0,1-.25-.47.44.44,0,0,1,.24-.37,1.6,1.6,0,0,1,1-.27,1.21,1.21,0,0,1,.65.19.88.88,0,0,1,.38.44,3.61,3.61,0,0,1,.11,1.2v.84a16,16,0,0,0-3.61,2,2.31,2.31,0,0,0-.82,1.73,1.61,1.61,0,0,0,.47,1.19,1.65,1.65,0,0,0,1.2.46,4.42,4.42,0,0,0,2.76-1.35,1.53,1.53,0,0,0,.5,1,1.66,1.66,0,0,0,1.12.33,2,2,0,0,0,1.09-.29,3.24,3.24,0,0,0,.94-1l-.27-.22A.64.64,0,0,1,147.46,45.41Zm-2.9-.86a1.7,1.7,0,0,1-1,.51.83.83,0,0,1-.63-.25,1,1,0,0,1-.3-.73,1.7,1.7,0,0,1,.35-1,5.55,5.55,0,0,1,1.62-1.37Z"/><path class="cls-1" d="M151.88,44.7V34.24h-3.53v.33a1.08,1.08,0,0,1,.8.3,1.91,1.91,0,0,1,.21,1.12V44.7a2,2,0,0,1-.18,1.1,1.12,1.12,0,0,1-.83.33v.32h4.55v-.32a1.14,1.14,0,0,1-.81-.28A1.94,1.94,0,0,1,151.88,44.7Z"/><path class="cls-1" d="M157,44.7V38h-3.53v.34a1.11,1.11,0,0,1,.8.28,2,2,0,0,1,.21,1.14V44.7a2,2,0,0,1-.18,1.1,1.1,1.1,0,0,1-.83.33v.32H158v-.32a1.18,1.18,0,0,1-.81-.28A2,2,0,0,1,157,44.7Z"/><path class="cls-1" d="M155.73,36.74a1.34,1.34,0,0,0,1-.41,1.3,1.3,0,0,0,.42-1,1.34,1.34,0,0,0-.41-1,1.37,1.37,0,0,0-2,0,1.34,1.34,0,0,0-.4,1,1.32,1.32,0,0,0,.4,1A1.34,1.34,0,0,0,155.73,36.74Z"/><path class="cls-1" d="M165.82,45.41a.31.31,0,0,1-.21-.07.44.44,0,0,1-.13-.21,3.35,3.35,0,0,1,0-.73V41.13a7.61,7.61,0,0,0-.12-1.74,2.44,2.44,0,0,0-.92-1.1,3.09,3.09,0,0,0-1.88-.51,5.8,5.8,0,0,0-1.91.32,3.29,3.29,0,0,0-1.44.9,1.88,1.88,0,0,0-.51,1.24,1.05,1.05,0,0,0,.38.8,1.39,1.39,0,0,0,.95.34,1.2,1.2,0,0,0,.86-.3,1,1,0,0,0,.33-.76,1.15,1.15,0,0,0-.34-.75.75.75,0,0,1-.25-.47.45.45,0,0,1,.23-.37,1.64,1.64,0,0,1,1-.27,1.17,1.17,0,0,1,.64.19.86.86,0,0,1,.39.44,3.92,3.92,0,0,1,.11,1.2v.84a15.52,15.52,0,0,0-3.61,2,2.32,2.32,0,0,0-.83,1.73A1.62,1.62,0,0,0,159,46.1a1.64,1.64,0,0,0,1.19.46,4.47,4.47,0,0,0,2.77-1.35,1.52,1.52,0,0,0,.49,1,1.71,1.71,0,0,0,1.13.33,2,2,0,0,0,1.09-.29,3.36,3.36,0,0,0,.94-1l-.27-.22C166.13,45.3,166,45.41,165.82,45.41Zm-2.9-.86a1.74,1.74,0,0,1-1,.51.8.8,0,0,1-.62-.25,1,1,0,0,1-.3-.73,1.63,1.63,0,0,1,.35-1,5.3,5.3,0,0,1,1.62-1.37Z"/><path class="cls-1" d="M174.94,44.62V41.34a8.3,8.3,0,0,0-.15-2,2.15,2.15,0,0,0-.71-1.13,2.1,2.1,0,0,0-1.37-.46,2.66,2.66,0,0,0-1.27.32,4.75,4.75,0,0,0-1.25,1V38h-3.42v.34a1,1,0,0,1,.72.3,2.37,2.37,0,0,1,.18,1.19v4.76a2.62,2.62,0,0,1-.15,1.17,1.06,1.06,0,0,1-.75.34v.32H171v-.32a.94.94,0,0,1-.66-.32,2.63,2.63,0,0,1-.17-1.19V40.11q.67-1.11,1.44-1.11a.68.68,0,0,1,.43.15.86.86,0,0,1,.28.41,6.51,6.51,0,0,1,.08,1.31v3.75a2.47,2.47,0,0,1-.15,1.11.9.9,0,0,1-.68.4v.32h4.26v-.32a1.07,1.07,0,0,1-.74-.3A2.51,2.51,0,0,1,174.94,44.62Z"/><path class="cls-1" d="M187.92,41.66h.32a1.6,1.6,0,0,1,.75.17.87.87,0,0,1,.41.39,2.58,2.58,0,0,1,.1.93v2.53a5.19,5.19,0,0,1-1,.28,3.9,3.9,0,0,1-.89.09,3.81,3.81,0,0,1-2.2-.62,3.47,3.47,0,0,1-1.33-1.94,10.24,10.24,0,0,1-.42-3.08,10.73,10.73,0,0,1,.38-2.83,4.09,4.09,0,0,1,1.29-2.14,3.36,3.36,0,0,1,2.28-.78,4.3,4.3,0,0,1,2.64.92,5.53,5.53,0,0,1,1.8,2.69h.34V34h-.34a1.53,1.53,0,0,1-.39.7.68.68,0,0,1-.47.18,5.36,5.36,0,0,1-1-.33,6.85,6.85,0,0,0-2.92-.56,6.69,6.69,0,0,0-4.87,1.9,6.29,6.29,0,0,0-1.94,4.66,6.21,6.21,0,0,0,.63,2.78A6,6,0,0,0,182.45,45a7.41,7.41,0,0,0,2,1.24,7.77,7.77,0,0,0,2.89.47,13.23,13.23,0,0,0,2.62-.27,12.2,12.2,0,0,0,2.44-.79V43.15a2.38,2.38,0,0,1,.08-.84.88.88,0,0,1,.4-.46,2.71,2.71,0,0,1,1-.19v-.33h-5.94Z"/><path class="cls-1" d="M200.31,38.35a3.88,3.88,0,0,0-2-.57,3.45,3.45,0,0,0-2.88,1.35,5.2,5.2,0,0,0,0,6.24,3.47,3.47,0,0,0,2.92,1.33,3.59,3.59,0,0,0,3-1.46,4.8,4.8,0,0,0,.91-3,5.25,5.25,0,0,0-.5-2.28A3.56,3.56,0,0,0,200.31,38.35Zm-.9,6.65a1.51,1.51,0,0,1-.47.86,1.05,1.05,0,0,1-1.41-.11,1.68,1.68,0,0,1-.42-1A11.28,11.28,0,0,1,197,43c0-1.21,0-2.15.1-2.83a2.43,2.43,0,0,1,.43-1.37,1.09,1.09,0,0,1,.8-.35.93.93,0,0,1,.61.19,1.56,1.56,0,0,1,.5.84,8.59,8.59,0,0,1,.17,2.09A20.79,20.79,0,0,1,199.41,45Z"/><path class="cls-1" d="M210.85,38h-2.76v.34a1.18,1.18,0,0,1,.71.19A.57.57,0,0,1,209,39a5.43,5.43,0,0,1-.47,1.65l-1.11,2.73L206,40.24a4.19,4.19,0,0,1-.4-1.25.63.63,0,0,1,.22-.47.82.82,0,0,1,.58-.15V38H202v.34a1,1,0,0,1,.61.31,6.74,6.74,0,0,1,.81,1.5l2.83,6.52h.42l2.81-6.61a5.21,5.21,0,0,1,.76-1.42,1,1,0,0,1,.65-.3Z"/><path class="cls-1" d="M216.45,38.84a2.84,2.84,0,0,0-2.21-1.06A3.5,3.5,0,0,0,211.57,39a4.77,4.77,0,0,0-1.14,3.35,5,5,0,0,0,.78,2.88A3.18,3.18,0,0,0,214,46.7a3.32,3.32,0,0,0,1.92-.57,5.19,5.19,0,0,0,1.51-2l-.31-.2a3.82,3.82,0,0,1-.95,1.09,1.71,1.71,0,0,1-1,.3,1.92,1.92,0,0,1-1.5-.75,4.33,4.33,0,0,1-.89-2.65h4.62A4.74,4.74,0,0,0,216.45,38.84Zm-3.64,2.5V41a3.94,3.94,0,0,1,.53-2.19.87.87,0,0,1,.76-.46.76.76,0,0,1,.51.16,1.62,1.62,0,0,1,.48.82,7.85,7.85,0,0,1,.17,2Z"/><path class="cls-1" d="M224.15,37.78a2.13,2.13,0,0,0-1.22.43,6.25,6.25,0,0,0-1.47,1.73V38H218v.34a1.29,1.29,0,0,1,.61.16.74.74,0,0,1,.25.37,2.93,2.93,0,0,1,.08.92v4.65a2.7,2.7,0,0,1-.2,1.36,1,1,0,0,1-.74.3v.32h4.55v-.32a2,2,0,0,1-.72-.14.81.81,0,0,1-.32-.36,2.13,2.13,0,0,1-.06-.66V42.53a6.14,6.14,0,0,1,.29-1.92,1.89,1.89,0,0,1,.55-.87.77.77,0,0,1,.51-.2.46.46,0,0,1,.2.05,4.74,4.74,0,0,1,.41.34,1.27,1.27,0,0,0,.83.31.89.89,0,0,0,.7-.33,1.38,1.38,0,0,0,.3-.94,1.14,1.14,0,0,0-.31-.87A1,1,0,0,0,224.15,37.78Z"/><path class="cls-1" d="M234,44.62V41.34a8.3,8.3,0,0,0-.15-2,2.11,2.11,0,0,0-.72-1.13,2.05,2.05,0,0,0-1.36-.46,2.66,2.66,0,0,0-1.27.32,4.75,4.75,0,0,0-1.25,1V38h-3.43v.34a1.11,1.11,0,0,1,.74.3,2.54,2.54,0,0,1,.17,1.19v4.76a2.62,2.62,0,0,1-.15,1.17,1.07,1.07,0,0,1-.76.34v.32h4.26v-.32a.89.89,0,0,1-.65-.32,2.45,2.45,0,0,1-.18-1.19V40.11c.45-.74.93-1.11,1.45-1.11a.68.68,0,0,1,.42.15.8.8,0,0,1,.28.41,6.51,6.51,0,0,1,.08,1.31v3.75a2.47,2.47,0,0,1-.15,1.11.9.9,0,0,1-.68.4v.32h4.26v-.32a1.07,1.07,0,0,1-.74-.3A2.65,2.65,0,0,1,234,44.62Z"/><path class="cls-1" d="M248.84,44.62V41.17a6.66,6.66,0,0,0-.21-2,1.94,1.94,0,0,0-.73-1,2.08,2.08,0,0,0-1.38-.41,2.91,2.91,0,0,0-1.39.36,5.52,5.52,0,0,0-1.37,1.17,2.17,2.17,0,0,0-2.21-1.53,2.79,2.79,0,0,0-1.29.3A5,5,0,0,0,239,39.14V38h-3.43v.34a1.06,1.06,0,0,1,.73.3,2.41,2.41,0,0,1,.17,1.19v4.76a2.67,2.67,0,0,1-.14,1.17,1.11,1.11,0,0,1-.76.34v.32h4.34v-.32a.94.94,0,0,1-.74-.34,2.53,2.53,0,0,1-.17-1.17V40.09a3.61,3.61,0,0,1,.9-1,1.15,1.15,0,0,1,.65-.19.74.74,0,0,1,.46.16.9.9,0,0,1,.3.45,6.66,6.66,0,0,1,.09,1.44v3.62a3.93,3.93,0,0,1-.07,1A.75.75,0,0,1,241,46a1.15,1.15,0,0,1-.55.17v.32h4.36v-.32a.89.89,0,0,1-.79-.38,2.36,2.36,0,0,1-.16-1.13V40.09a3.62,3.62,0,0,1,.8-.84,1.35,1.35,0,0,1,.78-.29.73.73,0,0,1,.46.15.8.8,0,0,1,.28.45,6.54,6.54,0,0,1,.1,1.44v3.62a2.3,2.3,0,0,1-.17,1.11,1,1,0,0,1-.75.4v.32h4.34v-.32a1.06,1.06,0,0,1-.73-.31A2.46,2.46,0,0,1,248.84,44.62Z"/><path class="cls-1" d="M256.22,38.84A2.88,2.88,0,0,0,254,37.78,3.52,3.52,0,0,0,251.33,39a4.77,4.77,0,0,0-1.14,3.35,5.11,5.11,0,0,0,.78,2.88,3.18,3.18,0,0,0,2.83,1.44,3.29,3.29,0,0,0,1.92-.57,5.2,5.2,0,0,0,1.52-2l-.31-.2A4,4,0,0,1,256,45a1.77,1.77,0,0,1-1,.3,1.9,1.9,0,0,1-1.49-.75,4.33,4.33,0,0,1-.89-2.65h4.62A4.74,4.74,0,0,0,256.22,38.84Zm-3.65,2.5V41a3.94,3.94,0,0,1,.53-2.19.89.89,0,0,1,.77-.46.73.73,0,0,1,.5.16,1.63,1.63,0,0,1,.49.82,8.52,8.52,0,0,1,.16,2Z"/><path class="cls-1" d="M265.74,44.62V41.34a8.89,8.89,0,0,0-.15-2,2.17,2.17,0,0,0-.72-1.13,2.07,2.07,0,0,0-1.36-.46,2.7,2.7,0,0,0-1.28.32,4.73,4.73,0,0,0-1.24,1V38h-3.43v.34a1.06,1.06,0,0,1,.73.3,2.37,2.37,0,0,1,.18,1.19v4.76a2.62,2.62,0,0,1-.15,1.17,1.07,1.07,0,0,1-.76.34v.32h4.26v-.32a.94.94,0,0,1-.66-.32,2.63,2.63,0,0,1-.17-1.19V40.11q.66-1.11,1.44-1.11a.66.66,0,0,1,.42.15.8.8,0,0,1,.28.41,5.8,5.8,0,0,1,.08,1.31v3.75a2.69,2.69,0,0,1-.14,1.11.91.91,0,0,1-.68.4v.32h4.25v-.32a1.06,1.06,0,0,1-.73-.3A2.51,2.51,0,0,1,265.74,44.62Z"/><path class="cls-1" d="M272.22,38.93V38h-2V35h-.29a10.77,10.77,0,0,1-1.4,2,11.58,11.58,0,0,1-1.93,1.68v.32h1.1v4.54a8.59,8.59,0,0,0,.09,1.66,2,2,0,0,0,.7,1,2.15,2.15,0,0,0,1.36.44,2.47,2.47,0,0,0,2.37-1.73l-.27-.2c-.35.6-.72.89-1.11.89a.55.55,0,0,1-.31-.12.67.67,0,0,1-.24-.34,3.78,3.78,0,0,1-.07-1V38.93Z"/><path class="cls-1" d="M32.9,40.47a.44.44,0,1,0-.44.44A.45.45,0,0,0,32.9,40.47Z"/><path class="cls-1" d="M38.26,37.77l6.1,3.65a.77.77,0,0,0,.56.25.73.73,0,0,0,.5-.2l6.2-3.7a2.91,2.91,0,0,0,1.25-2.65V22.29H37V35.12A2.89,2.89,0,0,0,38.26,37.77ZM47.6,22.72h4.83v8.52H47.6Zm0,9h4.83v3.61a2.71,2.71,0,0,1-1,2.12l-3.8,2.27Zm-4.89-9h4.46v8.52H42.71Zm0,9h4.46v8.26l-1.76,1h0a.73.73,0,0,1-.94,0l-1.74-1Zm-.43-.43H40.91V28.12h1.37Zm-.93-4.52.26,0,.15-.27.16.26.25,0-.12.22.2.21L42,27.2v.28l-.24-.18-.23.18V27.2l-.25-.05.19-.21Zm-.45-4h1.38V26H40.9Zm-1.3.8.26,0,.15-.27.16.27.26,0-.12.23.19.21-.25,0v.28L40,24.1l-.23.18V24l-.25,0,.19-.21Zm-.06,2.89c.46,0,.33.45.41.45s0-.45.3-.45,1,1.18.51,1.18c-.22,0,0-.17,0-.2s-.12-.11-.17-.11-.2.25-.33.25-.16,0-.16-.1.19-.14.27-.22c-1,0-1,.47-1.22.47s.23-.49.37-.64c-.2,0-.33-.29-.55-.42.1-.15.17-.08.3,0C39.22,26.54,39.3,26.41,39.54,26.41Zm0,3.91.19-.21-.12-.22.26,0,.15-.27.16.27.26,0-.12.22.19.21-.25.05v.27L40,30.47l-.23.17v-.27Zm-2.08-7.6h1.67V26H37.45Zm.2,4.43.19-.21-.12-.22.26,0,.15-.27.15.26.26,0-.12.22.2.21-.25.05v.28l-.24-.18-.23.18V27.2Zm-.2,1h1.66v3.12H37.45Zm0,3.55h4.83v8l-3.8-2.27a2.71,2.71,0,0,1-1-2.12Z"/><path class="cls-1" d="M38.8,36c.34,0,.28-.24.32-.34,0,.17.18-.09.18.21S39,36,39,36.29s.5,0,.5.39a5.43,5.43,0,0,1,0,.65c0,.14.53-.17.5-.23s.12.42.35.42.19-.39.31-.43c-.07,0,.49.37.49.2,0-.48-.2-.28-.2-.6s.66-.24.55-.39-.14-.06-.21-.28c0,0-.51-.75.11-.34s.73-1,.69-1.07-.31.07-.42.14a1.85,1.85,0,0,1,.46-.61c0-.21-.28,0-.55.12.9-1.3.32-.77-.19-.67.81-.87.6-.86,0-.59.47-.37.57-.81.5-.94-.44.59-.84.49-.84,1a2.22,2.22,0,0,1-.31,1.14c-.24.25-.06-1-.68-1-.2,0-.66,0-.81.22.13,0,.32.33.32.45s.12.49-.09.49S39,34,39,33.78s0-.17,0-.47a1.71,1.71,0,0,0-1.17-1.24c0,.36.46.45.46.9-.19,0-.48-.37-.48-.14s.3.27.3.47-.34-.07-.34.14.19.16.23.34c-.14,0-.26,0-.28,0s0,.15.14.2-.09.15-.09.45C37.7,35.5,38.34,36,38.8,36Z"/><path class="cls-1" d="M59,38A.46.46,0,1,0,59,37,.46.46,0,1,0,59,38Z"/><path class="cls-1" d="M56.33,38.76a.53.53,0,1,0,.52-.46A.49.49,0,0,0,56.33,38.76Z"/><path class="cls-1" d="M31.75,41.19a.5.5,0,0,0-.53.46.5.5,0,0,0,.53.46.49.49,0,0,0,.52-.46A.49.49,0,0,0,31.75,41.19Z"/><path class="cls-1" d="M33.38,42.25a.46.46,0,1,0,0-.92.46.46,0,1,0,0,.92Z"/><path class="cls-1" d="M79,23.81a3.29,3.29,0,0,0-.39-3.46c-.19-.2-.06-.64-.42-.7a4.18,4.18,0,0,0,.5,3.51C78.71,23.39,78.65,23.78,79,23.81Z"/><path class="cls-1" d="M12,23.7c.13,0,.11.25.24.11a5.15,5.15,0,0,1,0-2.21,2,2,0,0,0-.82-1.36.21.21,0,0,0-.28.05C11.43,21.38,10.93,22.91,12,23.7Z"/><path class="cls-1" d="M80.59,22.44c.22-.14.53-.44.36-.75a.71.71,0,0,0-.72-.28.62.62,0,0,0-.33.72A.69.69,0,0,0,80.59,22.44Z"/><path class="cls-1" d="M10.2,23.53a.8.8,0,0,0,.36-.61c-.08-.23-.28-.28-.47-.37a.69.69,0,0,0-.53.25.52.52,0,0,0,.12.59C9.79,23.53,10,23.53,10.2,23.53Z"/><path class="cls-1" d="M81.28,24.08a.62.62,0,0,0,.75-.25.56.56,0,0,0,0-.44.56.56,0,0,0-1,.22A.72.72,0,0,0,81.28,24.08Z"/><path class="cls-1" d="M79.9,24.25c.25.09.44-.14.58-.27s.2-.45,0-.56a.64.64,0,0,0-.53-.14.61.61,0,0,0-.38.64C79.6,24.11,79.76,24.11,79.9,24.25Z"/><path class="cls-1" d="M78.1,24.59c.36-.06.33-.45.33-.75a.74.74,0,0,0-.55-.31.66.66,0,0,0-.42.67A.53.53,0,0,0,78.1,24.59Z"/><path class="cls-1" d="M13.22,24.56c.17-.14.45-.3.36-.58a.51.51,0,0,0-.8-.26c-.06.17-.31.34-.11.54A.55.55,0,0,0,13.22,24.56Z"/><path class="cls-1" d="M11.62,24.59a.58.58,0,0,0,.3-.53c-.11-.2-.3-.48-.61-.37a.48.48,0,0,0-.25.65A.53.53,0,0,0,11.62,24.59Z"/><path class="cls-1" d="M72,27.77c.39-.36.19-1.06.3-1.59a5.79,5.79,0,0,0-.55-2c-.09-.14-.09-.42-.31-.34-.17,1-.61,2.1-.11,3.07C71.56,27.16,71.59,27.63,72,27.77Z"/><path class="cls-1" d="M9.57,24.81c.14.23.36.48.69.39s.44-.36.36-.7a.73.73,0,0,0-.69-.36A.7.7,0,0,0,9.57,24.81Z"/><path class="cls-1" d="M76.24,28a4,4,0,0,0-.13-2.68,1.09,1.09,0,0,1-.45-.83c-.08-.17-.19-.34-.38-.2a3.63,3.63,0,0,0-.34,1.59,10.9,10.9,0,0,0,1.14,2.26Z"/><path class="cls-1" d="M78.85,24.48a.61.61,0,0,0-.31.67.5.5,0,0,0,.64.33.71.71,0,0,0,.41-.67C79.45,24.59,79.15,24.31,78.85,24.48Z"/><path class="cls-1" d="M11.53,26.21a.6.6,0,0,0,.42-.53c-.06-.28-.3-.39-.55-.53-.17.05-.36.05-.45.22A.66.66,0,0,0,11,26C11.15,26.1,11.31,26.38,11.53,26.21Z"/><path class="cls-1" d="M12.86,26.09c.11-.14.42-.27.31-.55s-.31-.48-.64-.39-.36.33-.3.61S12.53,26.2,12.86,26.09Z"/><path class="cls-1" d="M79.73,26.54c.06-.36.61-.72.64-1.09a4.09,4.09,0,0,0-2.24,1.45c-.31.5-.81,1-.75,1.57A1.37,1.37,0,0,0,78,28.1,2.81,2.81,0,0,0,79.73,26.54Z"/><path class="cls-1" d="M12.34,28.22a.23.23,0,0,0,.19-.28,9.91,9.91,0,0,1-1.13-1.31c-.37-.48-.89-.59-1.36-1-.2,0-.56-.22-.64.09C10.06,26.74,11,28.13,12.34,28.22Z"/><path class="cls-1" d="M78.1,30.25c.3.2.64-.11.94-.22a3.59,3.59,0,0,0,1.72-3h-.22A13.88,13.88,0,0,0,78.1,30.25Z"/><path class="cls-1" d="M75,28.63a.68.68,0,0,0,.47-.81c-.14-.13-.22-.27-.39-.33a.47.47,0,0,0-.33.08.59.59,0,0,0-.39.62C74.47,28.41,74.66,28.66,75,28.63Z"/><path class="cls-1" d="M11.37,29.39a15.12,15.12,0,0,0-1.5-1.31,5.23,5.23,0,0,0-1.69-.37c-.19.09-.55,0-.58.28,1,.28,1.61,1.09,2.55,1.43C10.56,29.42,11,29.64,11.37,29.39Z"/><path class="cls-1" d="M17.43,29.22a.62.62,0,0,0,.42-.64c-.06-.25-.33-.28-.56-.34-.21.12-.49.34-.38.65A.82.82,0,0,0,17.43,29.22Z"/><path class="cls-1" d="M15.49,29.3c.17.23.48.09.67-.08a.61.61,0,0,0-.11-.64c-.22-.22-.56-.06-.75.14S15.33,29.14,15.49,29.3Z"/><path class="cls-1" d="M75.13,29.08a.55.55,0,0,0-.41.42c0,.36.36.42.63.5.23-.11.48-.33.37-.64A.56.56,0,0,0,75.13,29.08Z"/><path class="cls-1" d="M76.3,29.7A.54.54,0,0,0,77,30a1,1,0,0,1,.28-.22c.22-.14,0-.37,0-.51s-.28-.25-.48-.19S76.24,29.39,76.3,29.7Z"/><path class="cls-1" d="M8.13,29.64a1,1,0,0,0,.22.36.54.54,0,0,0,.74-.36.66.66,0,0,0-.66-.48A.51.51,0,0,0,8.13,29.64Z"/><path class="cls-1" d="M17.35,30.25a.7.7,0,0,0,.61.39c.19-.11.44-.3.47-.53a.62.62,0,0,0-.75-.42A.57.57,0,0,0,17.35,30.25Z"/><path class="cls-1" d="M16.19,30.58c.27.17.52-.08.69-.21a.44.44,0,0,0-.08-.45c-.17-.12-.28-.25-.5-.2a1.28,1.28,0,0,0-.42.34C15.83,30.34,16,30.45,16.19,30.58Z"/><path class="cls-1" d="M80.45,30.64a.53.53,0,0,0,.61.14.72.72,0,0,0,.36-.53,1,1,0,0,0-.55-.39,1,1,0,0,0-.53.36C80.34,30.37,80.29,30.59,80.45,30.64Z"/><path class="cls-1" d="M82.67,31a.69.69,0,0,0,.53-.5.5.5,0,0,0-.7-.28.52.52,0,0,0-.25.45C82.2,30.92,82.5,31,82.67,31Z"/><path class="cls-1" d="M11.73,30.56c-.17.11-.42.05-.47.31a.47.47,0,0,0,.14.55c.13.12.33.25.52.14a.53.53,0,0,0,.33-.67A.69.69,0,0,0,11.73,30.56Z"/><path class="cls-1" d="M13.39,31.62c.06-.17.3-.25.22-.47s-.72-.56-.94-.14c-.2.24,0,.5.22.67A.48.48,0,0,0,13.39,31.62Z"/><path class="cls-1" d="M78.85,31.31a.47.47,0,0,0,.55.34c.17-.17.41-.36.39-.65a.63.63,0,0,0-.64-.22A.58.58,0,0,0,78.85,31.31Z"/><path class="cls-1" d="M81,31.45a.52.52,0,0,0,.11.59.79.79,0,0,0,.66.11c.28-.17.25-.45.31-.7-.17-.08-.22-.22-.42-.33A.65.65,0,0,0,81,31.45Z"/><path class="cls-1" d="M11,32.43c.08-.11.33-.17.22-.39s-.61-.67-.86-.2c0,.14-.11.42.09.54A.56.56,0,0,0,11,32.43Z"/><path class="cls-1" d="M77,32.09a9.26,9.26,0,0,1,1.11.62,2.1,2.1,0,0,0,2.24.11c0-.06.08-.22,0-.25-.88,0-1.52-.78-2.32-.89C77.63,31.76,77.13,31.73,77,32.09Z"/><path class="cls-1" d="M11.7,32.15a.5.5,0,0,0,.19.7c.14,0,.36.11.47-.06s.23-.25.17-.47A.5.5,0,0,0,11.7,32.15Z"/><path class="cls-1" d="M14.69,33.1c.22-.14.39-.36.28-.61s-.69-.53-.94-.12c-.25.22,0,.45.14.64C14.33,33,14.5,33.21,14.69,33.1Z"/><path class="cls-1" d="M45.76,38.2a2.63,2.63,0,0,0,1.05-.9c0-.45.16-1-.11-1.41a4.51,4.51,0,0,1-.55-1.56c-.13-.75.79-.11.84-.66-.26-.3-.65-.83-1.13-.45a.91.91,0,0,0-.31.92c.1.72.42,1.38.53,2a2.66,2.66,0,0,1-.4-.34c-.56-.72-1.58-.5-2.21-1.17-.77.06.5.85-.4,1,0,.19.19.29.19.48s-.19.08-.27.13a3.9,3.9,0,0,0,.45,1.32C43.81,38.59,45,38.12,45.76,38.2Z"/><path class="cls-1" d="M17.1,34.07c.16-.13.39-.3.3-.58a.57.57,0,0,0-.52-.28c-.17.14-.36.28-.28.56S16.85,34.18,17.1,34.07Z"/><path class="cls-1" d="M34,33.88c-.3,1.09-.86,2.54-.11,3.57.3,0,.22-.34.24-.56a3.8,3.8,0,0,0,.34-3.12C34.41,33.49,34.08,33.6,34,33.88Z"/><path class="cls-1" d="M58.27,36.89a3.2,3.2,0,0,0-.06-2.59c-.11-.23-.08-.73-.47-.64a6.66,6.66,0,0,1-.33,1.47,6.36,6.36,0,0,0,.63,2Z"/><path class="cls-1" d="M18.62,35.25c.31-.23.78-.31.95-.64-.06-.15-.2-.09-.25-.2a3,3,0,0,0-3.16,1.31A3.29,3.29,0,0,0,18.62,35.25Z"/><path class="cls-1" d="M10.09,38.34c-.61-1-.88-2-1.91-2.73-.11,0-.28,0-.28.11a3.06,3.06,0,0,0,1.7,2.87c.3-.05.52.28.74.11S10.17,38.46,10.09,38.34Z"/><path class="cls-1" d="M56.88,37.11c.22-.08.28-.36.25-.64a.5.5,0,0,0-.75-.14c-.05.14-.22.26-.14.45A.5.5,0,0,0,56.88,37.11Z"/><path class="cls-1" d="M78.79,39.91c.06.13.17.08.28.08,1.55-.45,2.49-1.87,3.38-3.13a.91.91,0,0,0-.75.11C80.23,37.34,79.73,38.9,78.79,39.91Z"/><path class="cls-1" d="M6.55,38.62c.25,0,.14-.28.27-.39-.05-.28-.27-.36-.5-.48a.5.5,0,0,0-.35.62A.44.44,0,0,0,6.55,38.62Z"/><path class="cls-1" d="M11.28,38.12a3,3,0,0,0,3.19.81c.14-.06.42-.06.33-.31-.94-.7-2.27-.47-3.4-.75C11.28,37.9,11.28,38,11.28,38.12Z"/><path class="cls-1" d="M7.35,38.57a.89.89,0,0,0,.36.36.64.64,0,0,0,.7-.25.77.77,0,0,0-.06-.42A.8.8,0,0,0,7.82,38,.66.66,0,0,0,7.35,38.57Z"/><path class="cls-1" d="M33.59,38.18a.39.39,0,0,0-.2.52.55.55,0,0,0,.58.23c.17-.11.39-.28.33-.53S33.83,38.12,33.59,38.18Z"/><path class="cls-1" d="M82.48,38.57c-.06.19.1.3.13.44a.61.61,0,0,0,.53.09c.19-.17.44-.31.36-.59a3.16,3.16,0,0,0-.39-.28A.58.58,0,0,0,82.48,38.57Z"/><path class="cls-1" d="M84.72,39.21a.38.38,0,0,0,.5-.17c.14-.2.27-.39.11-.64-.22,0-.33-.28-.61-.17s-.41.25-.41.47S84.56,39,84.72,39.21Z"/><path class="cls-1" d="M5,39.79c.17.06.31,0,.45-.11s.22-.27.19-.47a.72.72,0,0,0-.55-.42.71.71,0,0,0-.5.56A.8.8,0,0,0,5,39.79Z"/><path class="cls-1" d="M63.08,39.26c-.08.25.12.42.28.59s.5-.06.67-.28a.88.88,0,0,0,0-.36A.55.55,0,0,0,63.08,39.26Z"/><path class="cls-1" d="M9.48,39.1c-.25.14-.22.39-.22.64s.22.33.47.3.33-.22.39-.41A.5.5,0,0,0,9.48,39.1Z"/><path class="cls-1" d="M6.44,39.91a.66.66,0,0,0,.74.39.58.58,0,0,0,.28-.62c-.14-.14-.28-.42-.53-.42A.77.77,0,0,0,6.44,39.91Z"/><path class="cls-1" d="M65.52,40.29a.55.55,0,0,0,.31-.66.64.64,0,0,0-.56-.31c-.33,0-.36.36-.49.59C64.91,40.12,65.19,40.41,65.52,40.29Z"/><path class="cls-1" d="M8.23,40.27c.17,0,.26-.11.39-.11s.23-.23.14-.42a.5.5,0,0,0-.53-.39c-.19.11-.38.24-.35.53S8.13,40.13,8.23,40.27Z"/><path class="cls-1" d="M82,40a.56.56,0,0,0-1-.28c0,.14-.11.39,0,.5s.3.28.52.23A.82.82,0,0,0,82,40Z"/><path class="cls-1" d="M83.08,39.91c-.19.33.09.52.34.64a.72.72,0,0,0,.66-.48.53.53,0,0,0-.66-.42C83.25,39.68,83.2,39.79,83.08,39.91Z"/><path class="cls-1" d="M70,40.69a1.36,1.36,0,0,0,.53.22c.22-.17.55-.28.41-.64a.65.65,0,0,0-.55-.31A.64.64,0,0,0,70,40.69Z"/><path class="cls-1" d="M62.45,40.63a.47.47,0,0,0,.27.53c.25.17.48-.11.64-.22s.08-.28,0-.34A.52.52,0,0,0,62.45,40.63Z"/><path class="cls-1" d="M64,40.74a.44.44,0,0,0,0,.42c.19.06.41.28.61.09a.4.4,0,0,0,.22-.45c-.09-.23-.31-.23-.5-.28A.57.57,0,0,0,64,40.74Z"/><path class="cls-1" d="M17.79,41.36c0-.17.23-.37.06-.53a.91.91,0,0,0-.56-.28c-.22,0-.22.19-.38.25-.06.22-.09.58.19.7A.55.55,0,0,0,17.79,41.36Z"/><path class="cls-1" d="M73.47,41.38c.19-.05.47-.16.42-.44-.2-.23-.45-.51-.83-.34-.06.14-.22.26-.22.42S73.14,41.5,73.47,41.38Z"/><path class="cls-1" d="M71.34,41c0,.16,0,.33.14.41a.56.56,0,0,0,.61.12c.11-.14.41-.28.3-.56a.71.71,0,0,0-.61-.34C71.59,40.66,71.51,40.82,71.34,41Z"/><path class="cls-1" d="M84.88,41.27l-.08-.08c-1.19,0-2.41-1-3.6-.22-.22.13-.64,0-.72.36,1.11.42,2.6,1,3.77.25C84.44,41.47,84.94,41.66,84.88,41.27Z"/><path class="cls-1" d="M5.38,41.78A4.53,4.53,0,0,0,9,41.13l.11-.19L9,40.86a5.06,5.06,0,0,0-3.72.74Z"/><path class="cls-1" d="M76.71,41.14c-.11-.28-.44-.31-.64-.31s-.44.31-.35.53a.55.55,0,0,0,.72.3A.63.63,0,0,0,76.71,41.14Z"/><path class="cls-1" d="M13.69,41.8c.28-.11.23-.33.34-.55-.17-.26-.42-.51-.75-.34-.14.14-.36.23-.28.53A.61.61,0,0,0,13.69,41.8Z"/><path class="cls-1" d="M11.37,41.91a.49.49,0,0,0,.55-.08c.05-.14.23-.25.14-.45s-.3-.39-.55-.44a1.48,1.48,0,0,0-.45.3A.65.65,0,0,0,11.37,41.91Z"/><path class="cls-1" d="M78.65,42a.59.59,0,0,0-.5-.45c-.1.06-.3.06-.36.14a.45.45,0,0,0-.11.53.63.63,0,0,0,.53.28A.6.6,0,0,0,78.65,42Z"/><path class="cls-1" d="M9.26,43.39a3.68,3.68,0,0,0,.61-1.2c0-.17.22-.24.14-.47l-.08-.06A7.33,7.33,0,0,0,7.13,44l.11.22C8,44,8.73,44,9.26,43.39Z"/><path class="cls-1" d="M76.85,42.86c.19-.14.47-.19.42-.53a.57.57,0,0,0-.62-.36c-.16.14-.44.25-.35.56A.63.63,0,0,0,76.85,42.86Z"/><path class="cls-1" d="M12.53,42.08a.46.46,0,0,0-.28.64.74.74,0,0,0,.61.28c.17-.14.39-.22.42-.53-.06,0-.11-.08-.08-.14C13.11,42.08,12.78,42.05,12.53,42.08Z"/><path class="cls-1" d="M83.31,43.7c.22-.14.47-.31.35-.64a.66.66,0,0,0-.66-.31c-.31.06-.36.39-.64.42a2.53,2.53,0,0,0-1.91-1.09c-.3.22.23.42.33.67a3.49,3.49,0,0,0,2,1.73c.08.06.28.08.33,0a.83.83,0,0,0-.39-.55C82.69,43.53,83.11,43.84,83.31,43.7Z"/><path class="cls-1" d="M85,42.83a.44.44,0,0,0,0-.53.76.76,0,0,0-.64-.19.83.83,0,0,0-.42.36c-.06.22.09.36.22.5S84.86,43.11,85,42.83Z"/><path class="cls-1" d="M72.81,42.75c.36,1.11,1.58,1.7,2.52,2.23,0,0,.19,0,.24,0a3.7,3.7,0,0,0-.6-1.12c-.11-.31-.34-.44-.53-.72a2.63,2.63,0,0,0-1.91-.79C72.5,42.5,72.72,42.64,72.81,42.75Z"/><path class="cls-1" d="M10.76,43.09a.64.64,0,0,0,.64.22c.13-.11.35-.31.25-.56s-.28-.36-.5-.33S10.56,42.78,10.76,43.09Z"/><path class="cls-1" d="M77.49,43.2c-.17.14,0,.36,0,.5s.41.11.63.08.31-.22.28-.39C78.24,43.11,77.8,42.81,77.49,43.2Z"/><path class="cls-1" d="M84.94,44.48a.66.66,0,0,0,.39-.7A1.64,1.64,0,0,0,85,43.5a.71.71,0,0,0-.72.2c0,.19-.14.36,0,.53A.71.71,0,0,0,84.94,44.48Z"/><path class="cls-1" d="M66.16,47.63a4.12,4.12,0,0,0-3.77.76v.16a6,6,0,0,0,2.91-.41C65.55,47.89,66.16,48,66.16,47.63Z"/><path class="cls-1" d="M25.33,49.31a.53.53,0,0,0,.41-.48.61.61,0,0,0-.52-.41c-.2.13-.47.28-.36.61A.52.52,0,0,0,25.33,49.31Z"/><path class="cls-1" d="M64.58,49.14c0,.14,0,.34.08.45s.36.25.61.19a.8.8,0,0,0,.42-.64A.6.6,0,0,0,64.58,49.14Z"/><path class="cls-1" d="M71.2,49.09c-1.44-.12-3.1-.12-4,1l.14.11,1.5,0a4.58,4.58,0,0,0,2.38-1Z"/><path class="cls-1" d="M17.43,49.56a.48.48,0,0,0,.37.89.51.51,0,0,0,.36-.53C18.05,49.7,17.74,49.36,17.43,49.56Z"/><path class="cls-1" d="M19.07,49.84c-.08.11-.25.08-.34.25a.37.37,0,0,0,.17.48.48.48,0,0,0,.53,0c.05-.15.19-.23.11-.37A.79.79,0,0,0,19.07,49.84Z"/><path class="cls-1" d="M7.9,52.77c.31.16.75.59,1,.25-.64-.84-.86-1.73-1.8-2.27a3.52,3.52,0,0,1-.58-.3c-.2.06-.45-.31-.56,0C7,51.12,6.94,52.21,7.9,52.77Z"/><path class="cls-1" d="M89.68,42.19a2.22,2.22,0,0,0-2.08-1.14,1.89,1.89,0,0,0-1.55,1.14,1.41,1.41,0,0,0,.52,1.54.44.44,0,0,0,.56-.14c.14-.37-.25-.37-.31-.65a.92.92,0,0,1,.31-1c.28-.28.75-.14,1.08-.14a2,2,0,0,1,.83.81,2.21,2.21,0,0,1,0,1.48,2.46,2.46,0,0,1-1.72,1.39c-2.29.34-27.53.23-27.53.23-3,.28-6.35-.56-8.89,1a4.37,4.37,0,0,0-2,3,19.53,19.53,0,0,0-2.16,2.21l-.09-.08c.14-.67.45-1.26.58-1.93A10.81,10.81,0,0,0,47.9,48a15.33,15.33,0,0,1,3.69-4.64c.69-.92,1.91-.75,3-.75a7.36,7.36,0,0,0,3.85.56.25.25,0,0,0,.09-.2c-.39-.36-1-.5-1.47-.86-1.11-.53-2.16.16-3.33.08,0,0-.11-.08-.08-.17a16.74,16.74,0,0,1,3.44-1.84,23.59,23.59,0,0,1,3-1.2c.42,0,.81-.36,1.2-.11a20.47,20.47,0,0,1-2.85,4.72c-.42,0-.67.44-1.08.47-.23.31-.67.09-.95.2-.86.36-2.08.14-2.66,1a.36.36,0,0,0,.22.13c1.69,0,3.57.15,5.38.06a.67.67,0,0,0,.44-.53c-.25-.47.08-.89.3-1.25.15-.68.59-1.09.78-1.73.58-1.15,1.25-2.26,1.88-3.41h0c.05,0,.11.11.22.09,1.24-.42,2.82,0,4.23-.06l.2.17h0a19.59,19.59,0,0,1-.25,4c-.47,1.62-2.33,1.45-3.66,1.82-.33.22-1,.11-1,.67a25.76,25.76,0,0,0,5.21.11c.28-.11.34-.36.47-.61s.42-.68.31-1.07c-.31-.39,0-1-.12-1.53a.8.8,0,0,0,0-.53c.23-.81.17-1.78.34-2.57h0c.5.06.72.64,1.25.67.27-.39-.31-.56-.45-.81a3.07,3.07,0,0,1,1.86.28l-.28.31c-.17.3.08.53.33.64s.33-.08.47-.14c.36-.25,0-.5.09-.72a26.54,26.54,0,0,1,5.9,1.67,4.58,4.58,0,0,0,1.6.53,7.31,7.31,0,0,0-2.1-1.12c-.47-.28-1.14-.3-1.5-.69.09-.14.28-.09.36-.2a4.11,4.11,0,0,0,2.41-1.56c.06-.17.36-.12.34-.34-.26-.28-.67.09-1,.06-1.17.22-1.67,1.59-2.83,1.84-1.41-.33-2.85-.67-4.26-1A8.38,8.38,0,0,1,68.82,38,14.87,14.87,0,0,1,69,36.42a1,1,0,0,0,.11-.59,1.48,1.48,0,0,1,.28-.28l.58-.26a6.89,6.89,0,0,1,2.22,0,5.88,5.88,0,0,0,1.38.31,1,1,0,0,1,.69-.14c.89-.48.31-1.51.37-2.32a18.08,18.08,0,0,0,2.1-2.28.54.54,0,0,0-.3-.54.47.47,0,0,0-.56.12c-.33.25,0,.55,0,.86a4.61,4.61,0,0,1-1.27,1.09l-.24.09-.07-.17a4.66,4.66,0,0,1-.22-.56c-.16-.2-.27-.56-.44-.75a11.3,11.3,0,0,0-2.16-2.91,11.69,11.69,0,0,0-5.85-3.59c-2.19-.76-4.4.22-6.37.92a1.61,1.61,0,0,1-1.08-1.18,5.53,5.53,0,0,1,.53-3,10.34,10.34,0,0,1,.75-1.86,20.35,20.35,0,0,0,1.13-4.8,2.52,2.52,0,0,0-1.5-2.21,1.5,1.5,0,0,0-1.52.31,4,4,0,0,1-1.8,1.62c-.05.47.53.17.72.33.61.12,1.3-.08,1.8.31a4.68,4.68,0,0,1-1.16,2.87,22.21,22.21,0,0,0-2.52,4.36l0,0V20.75h0v0H41.44c-.66-.23-1.18-.91-1.9-.91-1.55-.62-2.58,1-4.15.81-.2.11-.14.31-.25.45s-.23,0-.31,0c-.08-.66-.3-1.28-.39-1.92-.16-.28-.08-.67-.22-.95-.89-2.43,2.16-.59,2.77-2,.53-1.22-1-1.36-1.5-2.23v-.36c-.44-.45-.91-.59-1.19-1.17a4,4,0,0,0,.09-2.15c0-.17-.14-.39-.39-.31-.53.73-.91,1.31-1.41,2A15.93,15.93,0,0,0,31,10.72c-.41-.05-.8-.47-1.27-.3a.4.4,0,0,0,.08.42,4,4,0,0,0,1.36,2.73l.08.41a12.65,12.65,0,0,0-.5,3.69,20.26,20.26,0,0,1-6,8.45c-1.58,1.79-3.46,3.52-3.71,6-.08.4.06.87-.25,1.15a9.74,9.74,0,0,1-2.57-1.37c-1.28-.89-3.11-.78-3.94-2.4-.33-.64.08-1.28.39-1.76.94-.89.8-2.48.31-3.57-.12,0-.15.11-.23.14-.08,1.65-1.38,2.79-.88,4.61.11.52.38.86.52,1.36a3.05,3.05,0,0,1-.63-.14,7.31,7.31,0,0,0-1.86-.25c-1.28.59-3-.14-4,1-.16,0-.38.06-.33.31.61,0,1.19.17,1.8.14,1,.17,1.61-.64,2.27-1h.17c.27-.27.75-.11,1.11-.16a11.2,11.2,0,0,1,4.54,1.89v.12c-.55.25-1.19.41-1.74.72a3.83,3.83,0,0,0-1.56,1.87c-.44.7.14,1.31.42,1.9,0,.28,0,.61.3.73.89-.95.06-2.13.2-3.22a2.27,2.27,0,0,1,1.8-1.44c1.58-.68,2.71.61,4,1.33a18.92,18.92,0,0,1-.14,3.77,3.61,3.61,0,0,1-1.3.2c-2.19.16-3.91,1.36-5.87,2-.89.31-1.94.28-2.83.62a7,7,0,0,0,2.13-.09c2.72-.39,4.8-2.48,7.73-2.12l.06.09a7,7,0,0,1-1.3,1.81c-.09-.31-.11-.56-.39-.73a.52.52,0,0,0-.64.23.4.4,0,0,0,0,.42c.14.25.36.3.61.39-.05.25-.36.36-.53.58-.77,1.31-2.35.78-3.26,1.71-.14.19-.64.3-.42.61a4.15,4.15,0,0,0,2.85-.73c1-1.14,2.11-2.23,3.13-3.32A3.29,3.29,0,0,1,20,42.08a3.55,3.55,0,0,0-.74-.42.69.69,0,0,0-.5.56,1.72,1.72,0,0,0,.41.56,9.9,9.9,0,0,1-3.21,1,55.22,55.22,0,0,1-6,.45c-1-.06-2.07.28-3,0-1,.19-2.19-.14-3.05.45-.11.13,0,.27,0,.41,1.27.84,3,.17,4.46.42H19.26a4.84,4.84,0,0,0,2.25-.42,8.13,8.13,0,0,0,2.9-3.68A5.88,5.88,0,0,0,25,39.76a2.41,2.41,0,0,1,2.07-1.7,12.43,12.43,0,0,1-.47,4.24c-.16.9-.75,1.76-.39,2.71.09.45.56.45.92.5,3.35,0,6.7-.19,10.25.06a8.88,8.88,0,0,0,1.88.28c.06-.09.25-.11.17-.28a1,1,0,0,0-.66-.78c-.06-.17-.31-.12-.39-.23-1.78-1-3.91-.47-6-.44a4.46,4.46,0,0,1-3.07-.31c-.42-.5-.11-2.09-.11-2.09a19.41,19.41,0,0,1,.87-3A20.31,20.31,0,0,1,33,40.18a19.44,19.44,0,0,1,2.77,1.48,19.08,19.08,0,0,1,7.95,9.41c0,.3.31.64.11.94a15.59,15.59,0,0,0-2.1-2.12,4,4,0,0,0-2.11-3.09c-.41-.62-1.3-.67-2-.87l-10.09-.06c-8.19-.11-15.67.26-23.82.12-1.13-.12-2.52-.5-2.85-1.7a1.88,1.88,0,0,1,0-1.54A1.69,1.69,0,0,1,2.28,42a1.43,1.43,0,0,1,.94.78c0,.36-.3.7-.44,1,0,.12.14.34.33.25a1.31,1.31,0,0,0,.73-.89c0-.2.11-.47-.09-.61a1.87,1.87,0,0,0-1.3-1.15A2.35,2.35,0,0,0,.56,42a2.34,2.34,0,0,0-.44,2.35,3.75,3.75,0,0,0,3,2.23l27,.11c2.63.14,5.59-.31,8.25.23a3.15,3.15,0,0,1,2.24,2.12s-.11,0-.19,0a12,12,0,0,0-7.87-1.61,9.47,9.47,0,0,0-3.1.64A1.58,1.58,0,0,1,28,47.66c-1-.89-2.74-.84-4-.5,0,.08,0,.16,0,.19,1.36-.11,2.17,1.06,3.39,1.2.27.06.49-.25.74,0a25,25,0,0,1-3.85,1.73c-.41-.09-.64-.48-1-.7-.52-.59-1.49-.34-2.21-.39-.25,0-.48-.11-.64,0a2.37,2.37,0,0,0,1.19.92c.69.3,1.5,0,2.13.39a2.56,2.56,0,0,1-.58.39c-1.3.5-2.38,1.67-3.82,1.59a4.93,4.93,0,0,1-4.1-1.34,2.8,2.8,0,0,0-2.8-1.62c-.08.06-.19.06-.17.2.61.36,1.09,1.09,1.69,1.5.39.48,1.14,0,1.5.53a4.82,4.82,0,0,0,1.8.79,8.22,8.22,0,0,0,1.44.38L18.6,53a23.47,23.47,0,0,1-8.26.8c-.83,0-1.63-.27-2.46-.24a1.63,1.63,0,0,0,.66.39,1.82,1.82,0,0,1-.75.22,4.54,4.54,0,0,0-1,.28,2.74,2.74,0,0,0-1.19.28A5.67,5.67,0,0,1,4,56c0,.11,0,.28.11.28.53-.23,1.19-.05,1.72-.28C6.71,56,7.24,54.94,8,54.52a3.68,3.68,0,0,1,2.83-.33c.55.14-.06.36.11.72.22.2.41.42.72.34a.45.45,0,0,1,.19-.14.64.64,0,0,0,0-.7c.39-.25.91,0,1.33-.14,1.05,0,2.1-.25,3.13-.28.16,0,.36-.19.53,0-.09.22-.37.25-.25.55s.33.37.55.42c.28-.11.52-.31.41-.67-.05-.19-.27-.22-.41-.3.58-.28,1.24-.37,1.83-.64a6.08,6.08,0,0,0,1.16-.39c.36,0,.67-.37,1-.23a5.91,5.91,0,0,1-.58,1.34c-.45,1.48-.78,3.43,0,4.86.08,0,.11,0,.16-.06A6.68,6.68,0,0,1,21,54.27c.39-2.37,2.83-3.07,4.57-4l.09.11a8.48,8.48,0,0,0-1.05,3.88c.05.25-.12.5,0,.67a3,3,0,0,0,1-1.28c.19-1.26-.53-2.82.75-3.74,2.27-.89,4.4-2.07,7-2.1.08.09.28-.05.31.12a6.55,6.55,0,0,0-1.61,2c-.89,1.23-.86,3.32-.47,4.83.25.86-.5,1.33-.86,2-.17.23-.22.64-.38.91l.55.06L30,58a.85.85,0,0,1-.31,0c-.45-1.15.88-1.85.47-3a2,2,0,0,0-1.91-1.14A2.29,2.29,0,0,0,26,55c-.64,1.4.17,2.85.42,4.22-.06.44.44.94,0,1.3a3.8,3.8,0,0,0-3.13-.64c-.34.17-.95-.05-1.11.34a7.89,7.89,0,0,0,4,.5.38.38,0,0,1,.42,0c.11.72-.14,1.7.31,2.34a2.8,2.8,0,0,0,2.12.92,32.6,32.6,0,0,0,7.15-1.42,10.39,10.39,0,0,1,1-.22,19.48,19.48,0,0,1,3.93-.53A6.94,6.94,0,0,0,40,64.32c-.34.75.58.86.85,1.28a23,23,0,0,0-2.26,1.17c-1.78,0-3.28.62-4.94.81,0,.36.59.25.64.62s-.33.27-.53.41c0,.17,0,.2.17.23.17-.2.53-.06.7-.26.55,0,1-.16,1.54-.19a4.84,4.84,0,0,0,1.42-.56c.58-.17.94-.56,1.52-.72.83,0,1.58-.28,2.36-.34v.17c-.64,1-1.31,2.09-2,3.07a.31.31,0,0,0,.19.44,1.42,1.42,0,0,0,1.08-.16,31.76,31.76,0,0,0,1.58-3A4.07,4.07,0,0,1,44,65.21c.11-.06.28-.22.39-.06a12.53,12.53,0,0,0-1.33,2,2.34,2.34,0,0,0,.42,2.42c.33.28.83.2,1.27.23,1.08-.56,2.46.33,3.3-.73.49-.08.58.5.85.78.47.14,1,.62,1.45.28,0-.3-.37-.59-.53-.86-.33-.59-.75-1.06-1-1.6a5.38,5.38,0,0,1-.45-1,9,9,0,0,0,1.5.58,9.9,9.9,0,0,1,1.5.44,5.08,5.08,0,0,0,1.38,1.07c.69.33,1.47.39,2.19.67.27,0,.69.25.88,0a1.14,1.14,0,0,0-.41-.31c-.09-.36.5-.17.69-.45a.39.39,0,0,0-.32-.21c-.4-.21-1.38-.28-1.65-.43a6,6,0,0,1-1-.31c-1.67,0-2.58-1.5-3.91-2.06.3-.28.77-.5,1-.92a1.55,1.55,0,0,0,.08-1.48c-.25-.86-1.36-.75-2-1.23l.08-.08a11.61,11.61,0,0,1,3,.39c2.66.37,5.13,1.37,7.9,1.42,1.52,0,3.43.09,4.18-1.39.14-.87.3-1.73.44-2.6.34-1.39,1.25-2.67,1.11-4.21a2.92,2.92,0,0,0-1.88-1.73,2.43,2.43,0,0,0-2.41.61c-1,.81-.31,2.15-.28,3.24,0,.22,0,.39-.2.5-4-.36-7.75-1.36-11.74-1.78-.92-.16-1.84-.12-2.71-.3l-1.11-.12a46.62,46.62,0,0,0-10.17,1.15c-.69.22-1.47.27-2.16.53-.5-.09-.91.27-1.38.13a3,3,0,0,0,.94-1.84.78.78,0,0,0,.52.56c.2-.31-.16-.53-.19-.84.44-.25.64.31,1,.42a7,7,0,0,0,1.69.39l.19-.19a3.45,3.45,0,0,0-2.88-1.18,5.65,5.65,0,0,1-.5-3.18,5,5,0,0,1,.56-1.73A4,4,0,0,1,33,49.08a3.81,3.81,0,0,1,1.75-.94h.08a.12.12,0,0,0,0,.08c-.75.58-.83,1.39-1.28,2.12a2.32,2.32,0,0,0-.24,2.43c.16.36.08.92.46,1.17a6.08,6.08,0,0,0,.59-1.71c-.09-.92-.64-1.78-.11-2.67a2.25,2.25,0,0,1,1.49-1.23c1.53-.14,2.86.64,4.18,1.23.28.19.75.36.81.75a2.27,2.27,0,0,1-3.55,1.84,1.89,1.89,0,0,1-.44-1.7A1.13,1.13,0,0,1,38,50c.27.13.52.41.88.25a.35.35,0,0,0,.11-.45c-.3-.17-.41-.59-.83-.64a1.78,1.78,0,0,0-1.52.3,2,2,0,0,0-.64,2,2.39,2.39,0,0,0,1.72,1.78A3.21,3.21,0,0,0,41.12,52a3.88,3.88,0,0,0,.61-1.2,7.24,7.24,0,0,1,2.85,3.68,6,6,0,0,1,0,1.4l1,.08a1,1,0,0,1,.08-.67,8.42,8.42,0,0,1,2.85-4.57c.48-.28.36.36.48.55a3.7,3.7,0,0,0,2.41,2.13,3.05,3.05,0,0,0,3-1c.35-.67.8-1.65.19-2.35a1.78,1.78,0,0,0-3,.31c0,.23,0,.48.17.59s.33,0,.41-.14c.06-.42.42-.61.75-.84a.88.88,0,0,1,.89.17,1.49,1.49,0,0,1,.39,1.09,1.69,1.69,0,0,1-.92,1.31,2.83,2.83,0,0,1-2.66-.25,6.39,6.39,0,0,1-.77-1.23,2,2,0,0,1,0-1.28,9.31,9.31,0,0,1,4-1.4,2.89,2.89,0,0,1,1.47.92c1.27,1.31-.28,3.18.61,4.63.33-.05.33-.5.47-.78.41-1-.11-2.09-.36-3.07a5.84,5.84,0,0,0-1.06-1.64.68.68,0,0,1,.34-.06,7,7,0,0,1,1.69,1.45A7.53,7.53,0,0,1,58,54.47c-.22.84-1.11,1.23-1.8,1.53a2.6,2.6,0,0,0-.75.9c.33.19.8,0,1.13-.14.53-.2.84-.87,1.2-1.18,0,0,0,.12,0,.17,0,.31-.14.73.14.81a9.5,9.5,0,0,0,.25-1.42,2.66,2.66,0,0,1,.52,1.39c.26.51.67,1.17,1.33,1.26.17-.25,0-.51-.08-.72-.08-.71-.66-1.07-1-1.57-1-1.34-.53-3.43-1.28-4.94a5.71,5.71,0,0,0-1.49-2.06l.11-.11a15.84,15.84,0,0,1,3.74.67c1.52.75,3.74.58,4.46,2.56a7.16,7.16,0,0,0,1.58,3l.08-.05a1.1,1.1,0,0,0,0-1c-.17-1.4-1.38-1.73-2-2.9l.08-.11a16.87,16.87,0,0,1,2,.64,6,6,0,0,1,4.05,5,10.77,10.77,0,0,1-1,4.76c-.08.23-.47.48-.22.68.31-.23.36-.59.53-.84a7.8,7.8,0,0,0,.91-5.61c0-.36-.44-.64-.25-1a.9.9,0,0,0,.48.25c.16-.11.41-.11.52-.31s.14-.36,0-.5a.77.77,0,0,0-.8-.2,1.41,1.41,0,0,0-.34.62,5.56,5.56,0,0,0-1-1.48l.05-.08c1.25.42,2.39,1,3.66,1.36a1.8,1.8,0,0,0,1,.31,27.43,27.43,0,0,0,3.41.86c.83-.08,1.52.31,2.35.12v-.06l0,0c-.3-.39-1,0-1.33-.31a21.06,21.06,0,0,1-5.45-1.37c0-.08.13-.05.22-.05a.71.71,0,0,0,.44-.7.55.55,0,0,0-1,.17.71.71,0,0,0,.41.53c0,.05-.16,0-.24,0-.86-.39-1.7-.76-2.52-1.15-.31-.06-.56-.31-.86-.36-.64-.31-1.28-.62-1.92-.86A42.59,42.59,0,0,0,61.56,49l-1.19-.33c-.69-.2-1.38-.37-2.08-.56-2.35-.59-5.51-.64-7.56.64-.33-.11-.52.42-.69.08.58-1.53,2.27-2,3.79-2.09,11.11-.11,21.53-.19,32.47-.36a3.5,3.5,0,0,0,3.18-1.59A2.81,2.81,0,0,0,89.68,42.19ZM67.21,36.56l.12.33-.06.92H64.44c0-.06-.11-.08-.08-.16,1-.26,1.85-.84,2.85-1.09Zm-2.77-1a3.63,3.63,0,0,0,.5-.75c0-.28-.11-.39-.28-.58.2-.2.5-.15.75-.2A3.13,3.13,0,0,1,67,35.83h0a20,20,0,0,1-3.38,1.26A10.73,10.73,0,0,1,64.44,35.52ZM35,68.22l-.38-.36c.19-.25.6-.11.91-.28a4.69,4.69,0,0,1,2.35-.33A6.62,6.62,0,0,1,35,68.22Zm17.29-.44a11.82,11.82,0,0,0,3,.69c-.08.39-.76,0-.68.56a6.3,6.3,0,0,1-2.49-1.17S52.21,67.75,52.31,67.78Zm-26-11.86a2,2,0,0,1,.66-1.4,2.33,2.33,0,0,1,2.19.09,1.07,1.07,0,0,1,.44.53,1.23,1.23,0,0,1-.41,1.25h-.28a3.16,3.16,0,0,1,.16-1.25c0-.33-.3-.37-.52-.5a1.6,1.6,0,0,0-1.25.28A1.25,1.25,0,0,0,27,56.14c.19.31,0,.73.13,1.06l-.08.12C26.69,57,26.24,56.56,26.33,55.92Zm2.79,1a1,1,0,0,1-.13,1c-.48-.12-1.09-.06-1.33-.51.05-.19-.09-.47,0-.69C28,57,28.62,56.88,29.12,57Zm-1.58-1.19c.09-.22,0-.56.31-.61s.5-.06.53.17a6.13,6.13,0,0,1-.14,1C27.85,56.34,27.66,56.12,27.54,55.78Zm13,9a3.09,3.09,0,0,1,.89-2.52,1.63,1.63,0,0,1,1.19.06c-.72.2-1.63.37-1.8,1.29,0,.36-.08.55.08.86.31.53,1,.31,1.39.72a.37.37,0,0,1-.25.34A11.66,11.66,0,0,1,40.53,64.74Zm-1,1.92c.66-.28,1.35-.87,2.11-.61A3.84,3.84,0,0,1,39.54,66.66Zm2.63.28a19.79,19.79,0,0,1-1.36,2.62c-.05.14-.28.17-.44.2,0-.39.39-.7.55-1,.59-.76.75-1.57,1.42-2.29C42.5,66.61,42.17,66.72,42.17,66.94Zm-.88-2.7c-.28-.29,0-.59,0-.9a1.41,1.41,0,0,1,2-.36,3,3,0,0,1-.7,1.59A7.5,7.5,0,0,1,41.29,64.24Zm1.57,1.08v.11h0v-.14h.11s-.09,0-.11,0Zm.36-.75a4.5,4.5,0,0,1,.45-1.17A2.39,2.39,0,0,1,43.22,64.57Zm.31-2.26c-.36-.09-.56-.5-.94-.5a2.17,2.17,0,0,1,1,0C43.78,62,43.55,62.14,43.53,62.31Zm.33.84h0v-.31h0Zm0,1.28c0-.11,0-.25.08-.39s.28.11.33.2A.41.41,0,0,1,43.89,64.43Zm.41-1.73a3.06,3.06,0,0,1,.42-1,1.65,1.65,0,0,1,.75.11c.05.56.75,1.31,0,1.79-.25.11-.61.36-.89.11A.79.79,0,0,1,44.3,62.7Zm2-.78c-.06-.25.25-.06.36-.17l.85.06C47.1,61.75,46.55,62.78,46.33,61.92Zm1.38.36c-.33.11-.58.5-.92.59A1.14,1.14,0,0,1,47.71,62.28ZM46.55,64v.09h0V64Zm.05,1.7c0,.06,0,.14-.05.2l-.64-.5A.66.66,0,0,1,46.6,65.71Zm-.75-.86a.2.2,0,0,1,.25,0Zm-.38-.42c.11-.17.24-.42.44-.42,0,0,0,.06.05.09A1.41,1.41,0,0,1,45.47,64.43Zm-.64-.06h-.11l.16-.17C45,64.26,44.86,64.32,44.83,64.37Zm.08,1.06c.36-.39.69.23.84.53.41.62,1.49,1.18,1.08,2-.53.48-1.36,0-1.95.39-.3,0-.83.06-1-.25A16.5,16.5,0,0,1,44.91,65.43Zm-.77.53.14-.22a12.49,12.49,0,0,1-.92,2C43.19,67.08,43.89,66.55,44.14,66Zm1.22,3.32c-.53,0-1.33.34-1.83-.11,0-.22-.22-.33-.2-.56.45-.16.84.37,1.25,0a11.44,11.44,0,0,1,1.94.06c.31.09.77-.5.83.09C47.13,69.65,46,69,45.36,69.28Zm1.6-4v-.09H47v.09ZM47.13,67c0,.28.3.4.14.64A.8.8,0,0,1,47.13,67Zm.77,1.68-.14,0c-.13-.11-.08-.41,0-.58C47.88,68.31,48,68.5,47.9,68.7Zm1.39.67c0,.08-.17.08-.22,0a14.37,14.37,0,0,1-1.74-3.34l.1,0C48.1,67.11,48.63,68.31,49.29,69.37Zm1-2.57a.11.11,0,0,0-.06.11,3.17,3.17,0,0,1-1.94-.86l0-.14A5.24,5.24,0,0,1,50.32,66.8Zm-.73-3.71c.34.08.36.44.39.72A1.48,1.48,0,0,1,49,65.18a1.41,1.41,0,0,1-1.08.11,1.74,1.74,0,0,0,1.66-.94ZM49,63c.13.39.38.75.24,1.22s-.83.54-1.33.65a.86.86,0,0,1-.63-.2.32.32,0,0,0-.11-.28c.08-.36-.64-.72-.14-1S48.51,62,49,63Zm12.49-8.65a1.91,1.91,0,0,1,1.6.05A1.3,1.3,0,0,1,64,55c.41.39.3,1.09.22,1.59a1.57,1.57,0,0,1-1.19.95c0-.67.64-1.14.41-1.9a1.68,1.68,0,0,0-1.74-.56c-.25.17-.14.45-.22.71l-.11.91c-.55,0-.59-.5-.75-.89A1.62,1.62,0,0,1,61.48,54.33Zm.5,2.51c.3-.31-.09-2.07.77-.92,0,.22,0,.56-.19.73S62.2,57,62,56.84Zm.3.7c0,.44-.39.33-.61.5H61a1.5,1.5,0,0,1-.09-.78A5.14,5.14,0,0,1,62.28,57.54Zm-27.75.08a47.28,47.28,0,0,1,6.39-1,41.63,41.63,0,0,1,7.43.24c.77,0,1.44.23,2.18.29,1.56.19,3,.61,4.58.72.24.08.55.08.83.14,2.49.39,5.29,1.09,7.67,0a22.12,22.12,0,0,1-.55,2.9c-.22.28,0,.73-.31,1,0,.5-.42.75-.77.95-3.3.72-6.54-.39-9.73-.95A33.85,33.85,0,0,0,38,61.69c-2.13.4-4.21.9-6.26,1.48a9.22,9.22,0,0,1-3.88,0c-1-.48-.58-1.76-.88-2.66a17.35,17.35,0,0,0-.22-1.92,1.53,1.53,0,0,1-.11-.73c.41.06.83.37,1.27.48C30.28,58.77,32.37,58,34.53,57.62Zm20-31.2.05,2.5c.88,1.47,2,3.15,3.63,3.7.89.73,2,1.59,3.19,1,.64-.19.69.7,1,1.06.33,1-.42,1.76-.47,2.71h0a1,1,0,0,1-.69.64,6.84,6.84,0,0,1-1.27.36c-3.6,1.4-7.34,2.88-10.2,5.72a3.1,3.1,0,0,0,.28-1.17,2.34,2.34,0,0,0-.3-1.23,1.85,1.85,0,0,1-.2-.73l3.47-2.2a3.54,3.54,0,0,0,1.51-3.23ZM35.82,32c0,.07.13.1.23,0,.72-.47.5-1.53.5-2.26.16-.86-.44-1.28-.7-2l0,0V21.27h3a2.44,2.44,0,0,0,.67.28l.21-.28H54V35.7a3.33,3.33,0,0,1-1.25,2.57l-7.28,4.62h0a.85.85,0,0,1-.56.2.94.94,0,0,1-.57-.2l-7.26-4.62a3.34,3.34,0,0,1-1.26-2.57ZM34.2,25.09a2.25,2.25,0,0,1,.94-1.59.37.37,0,0,1,.14.2h0v3C35,26.19,33.92,25.77,34.2,25.09Zm5.31,18.39v.05A52.54,52.54,0,0,0,30.32,38c.28-.83.53-1.5.6-1.64a4.45,4.45,0,0,0,.17-1.28,5.44,5.44,0,0,0,.17-1.9,12.49,12.49,0,0,1,.86-2.59c.16-.42.3-.87.47-1.28a4,4,0,0,1,.55-1.45c.86.54,1.69.56,2.15,1.43V35.5a3.55,3.55,0,0,0,1.52,3.23l3,1.9C39.86,41.6,39.24,42.45,39.51,43.48Zm4.27,5.88a20.47,20.47,0,0,0-3.55-5.1c-.06-.25-.3-.48-.17-.76a2,2,0,0,0,.36-2.12c-.05-.14-.21-.3-.19-.44l-.24-.2,4.25,2.7a.87.87,0,0,0,.67.31.93.93,0,0,0,.61-.24l1.42-.91c-1,1.56.66,3.84-.67,5.31V48c-.39.51-.58,1-1.11,1.34-.66-.28-.91-1-1.3-1.59a2.47,2.47,0,0,1-.25-2.59c.25-.81-.17-1.51-.25-2.24l-.28-.16A3.21,3.21,0,0,0,42.7,46c.27.51.3,1.2.72,1.62a9,9,0,0,0,1.19,2.06c.11.29-.17.34-.31.48C44,50,44.05,49.56,43.78,49.36Zm1.85,3.13a2.44,2.44,0,0,0-.3,1l-.11.06c.08-.42-.33-.67-.22-1.11-.22-.34-.22-.76-.42-1.12s.22-.64.42-.95c.38.17.52.53.8.86S45.6,52,45.63,52.49Zm-.17-2.68a9.28,9.28,0,0,0,2-4.07c.19-.15.05-.51.24-.68,0-.44.25-.88,0-1.25.18-.61-.81-1.17-.18-1.56l-.13.06,1.77-1.12A3.78,3.78,0,0,0,49,43.53c.08.5.5,1.09.11,1.53a26,26,0,0,0-3,5.42C45.77,50.42,45.6,50.11,45.46,49.81Z"/><path class="cls-1" d="M71.67,52c0,.06,0,.14.06.19s.25,0,.36-.08A5.74,5.74,0,0,0,75.8,51c0-.14-.11-.16-.11-.25A4.22,4.22,0,0,0,71.67,52Z"/><path class="cls-1" d="M70.78,51.93c.31-.14.56-.36.45-.75a.52.52,0,0,0-.86-.17c-.08.14-.28.25-.19.47A.76.76,0,0,0,70.78,51.93Z"/><path class="cls-1" d="M17.57,51.54c.06.17.17.39.36.42a.58.58,0,0,0,.5-.14.56.56,0,0,0,.14-.59c-.17-.25-.42-.22-.64-.22A.61.61,0,0,0,17.57,51.54Z"/><path class="cls-1" d="M13.61,53.24v-.19c-1-.75-1.88-1.87-3.27-1.87-.16,0,0,.17,0,.25a3.78,3.78,0,0,1,1.47,1.39A2.13,2.13,0,0,0,13.61,53.24Z"/><path class="cls-1" d="M79.51,51.18A5.08,5.08,0,0,0,77,53.83c.17.19.34-.08.53-.08,1.14-.42,1.69-1.6,2.33-2.54A.86.86,0,0,0,79.51,51.18Z"/><path class="cls-1" d="M19.32,51.77c.14.16.25.33.47.3s.41-.22.39-.53a.59.59,0,0,0-.59-.31C19.46,51.37,19.21,51.48,19.32,51.77Z"/><path class="cls-1" d="M83,53c.25-.39.14-.92.39-1.28l-.14-.17a4,4,0,0,0-1.83,2.15c-.14.25-.47.53-.33.81C82,54.36,82.45,53.63,83,53Z"/><path class="cls-1" d="M4.17,52a.51.51,0,0,0,.22.66A.62.62,0,0,0,5,52.57.53.53,0,0,0,5,52C4.83,51.62,4.33,51.76,4.17,52Z"/><path class="cls-1" d="M3.53,52.68c0-.13-.06-.25-.08-.39a.58.58,0,0,0-.67-.22.56.56,0,0,0-.28.59.61.61,0,0,0,.64.36A.65.65,0,0,0,3.53,52.68Z"/><path class="cls-1" d="M5.66,52.8c.22.22.44.5.83.33s.28-.45.22-.67A.77.77,0,0,0,6,52.23.67.67,0,0,0,5.66,52.8Z"/><path class="cls-1" d="M10.73,52.6a1,1,0,0,0-.39.31c-.17.19.14.33.2.5s.38.08.52-.06.17-.33.2-.53S10.9,52.68,10.73,52.6Z"/><path class="cls-1" d="M85.36,52.6c-.23.08-.47.25-.36.56s.38.28.63.3.33-.25.42-.44C86,52.71,85.63,52.6,85.36,52.6Z"/><path class="cls-1" d="M80.26,52.71a.7.7,0,0,0-.47.5.66.66,0,0,0,.85.42c.12-.08.37-.25.34-.47A.73.73,0,0,0,80.26,52.71Z"/><path class="cls-1" d="M84.17,53.58a.61.61,0,0,0,.24-.48c-.08-.33-.55-.36-.8-.22s-.36.36-.11.59A.67.67,0,0,0,84.17,53.58Z"/><path class="cls-1" d="M4.3,53.58a.61.61,0,0,0-.66-.28.52.52,0,0,0-.28.58.65.65,0,0,0,.61.4A.59.59,0,0,0,4.3,53.58Z"/><path class="cls-1" d="M79.21,54.61a.63.63,0,0,0,.39-.73.56.56,0,0,0-.95-.06c-.22.15-.08.45,0,.59S79,54.66,79.21,54.61Z"/><path class="cls-1" d="M18.9,54.72c.09-.17.42-.22.31-.53s-.28-.45-.58-.36-.23.16-.36.28.08.42.22.58S18.79,54.77,18.9,54.72Z"/><path class="cls-1" d="M84.91,54c-.19,0-.22.19-.38.3,0,.25,0,.48.25.62a.78.78,0,0,0,.63-.11c0-.14.2-.23.14-.42A.63.63,0,0,0,84.91,54Z"/><path class="cls-1" d="M83.11,55.17c0-.17.19-.09.31-.12s.52-.25.41-.58a.91.91,0,0,0-.41-.39c-.22-.06-.33.11-.5.14-.47.33.3.61-.06,1-.5,0-1.16-.11-1.52.25.22.2.55.2.74.34a3.78,3.78,0,0,0,2.75,1.06v-.23A7.4,7.4,0,0,0,83.11,55.17Z"/><path class="cls-1" d="M71.48,54.41c-.08.28.14.45.28.65a.54.54,0,0,0,.6-.12c0-.14.2-.3.14-.44A.57.57,0,0,0,71.48,54.41Z"/><path class="cls-1" d="M10.56,55.47c0-.42-.52-.58-.83-.33,0,.14-.16.25-.13.45a.54.54,0,0,0,.49.33C10.37,55.89,10.48,55.72,10.56,55.47Z"/><path class="cls-1" d="M10.51,57.15c-.11.25-.58.55-.47.81a2.85,2.85,0,0,0,2.21-1.84c.14-.4.56-.62.56-1h-.17A5.79,5.79,0,0,0,10.51,57.15Z"/><path class="cls-1" d="M70.81,55.25c-.11.22-.25.45,0,.67s.34.31.58.22a.73.73,0,0,0,.48-.64C71.62,55.19,71.14,54.92,70.81,55.25Z"/><path class="cls-1" d="M72.78,56.26c.08,0,.22,0,.28.05a.68.68,0,0,0,.49-.61c-.08-.34-.49-.36-.75-.34s-.24.25-.38.39A.63.63,0,0,0,72.78,56.26Z"/><path class="cls-1" d="M17.1,55.67c-.19-.17-.28-.42-.61-.31-.14.14-.39.31-.33.56a.56.56,0,0,0,.53.34C16.91,56.14,17.13,56,17.1,55.67Z"/><path class="cls-1" d="M18,55.92c.08.22.3.28.5.34a.67.67,0,0,0,.52-.48.57.57,0,0,0-.63-.42C18.18,55.5,18,55.64,18,55.92Z"/><path class="cls-1" d="M79.51,57.73a5.37,5.37,0,0,0-1.58-2c-.22-.09-.49-.4-.75-.15a5.82,5.82,0,0,0,1.44,2.24c.42.08.78.59,1.22.39C79.9,58,79.65,57.84,79.51,57.73Z"/><path class="cls-1" d="M80,55.55c-.2.09-.44.14-.53.37s.09.47.23.64.61.11.77-.17a.7.7,0,0,0,.06-.61C80.34,55.69,80.2,55.53,80,55.55Z"/><path class="cls-1" d="M21.56,56.51a.54.54,0,0,0-.52-.2c-.17.17-.48.22-.33.56a.52.52,0,0,0,.66.33C21.65,57.07,21.59,56.73,21.56,56.51Z"/><path class="cls-1" d="M74.19,60.3a4,4,0,0,0-.72-2l-.77-.84c-.28-.08-.47-.58-.75-.33a.23.23,0,0,0,.11.28c.47,1.25.75,2.51,2,3.4h.11C74.33,60.69,74.11,60.5,74.19,60.3Z"/><path class="cls-1" d="M25.19,57.43s-.06,0,0-.06l-1.33-.22a5.65,5.65,0,0,0-2.44.53.2.2,0,0,0-.13.25A3.69,3.69,0,0,0,25.19,57.43Z"/><path class="cls-1" d="M18.85,57.28a4.13,4.13,0,0,0-3.61,2.46c.29.17.42-.14.64-.22,1.17-.28,2-1.42,3-2Z"/><path class="cls-1" d="M71.25,58.48c-.13.09-.33.12-.41.31s0,.44.25.56a.39.39,0,0,0,.53,0c.22-.05.3-.36.22-.59S71.51,58.54,71.25,58.48Z"/><path class="cls-1" d="M68.54,59.63a1.56,1.56,0,0,0,1-.72.28.28,0,0,0-.36,0,6,6,0,0,0-2.83.14c-.14.14-.41,0-.44.28A4.22,4.22,0,0,0,68.54,59.63Z"/><path class="cls-1" d="M18.85,59.71a.61.61,0,0,0-.56-.47c-.16.06-.39.11-.44.3s0,.34.11.51a.56.56,0,0,0,.55.11C18.74,60.08,18.76,59.83,18.85,59.71Z"/><path class="cls-1" d="M20.09,60.49c.23-.1.31-.36.39-.52a.76.76,0,0,0-.64-.48c-.13.09-.33.11-.38.25a.65.65,0,0,0,.08.56A.59.59,0,0,0,20.09,60.49Z"/><path class="cls-1" d="M70.37,59.94c-.08.19-.36.33-.19.56s.13.36.33.39a.48.48,0,0,0,.61-.11.74.74,0,0,0,.19-.53A.6.6,0,0,0,70.37,59.94Z"/><path class="cls-1" d="M72,60a.54.54,0,0,0-.34.76c.09.05.17.28.34.22.33.14.44-.22.6-.36s0-.25,0-.39S72.23,59.88,72,60Z"/><path class="cls-1" d="M19.21,61.75a.76.76,0,0,0,.27-.75.67.67,0,0,0-.74-.37.75.75,0,0,0-.34.81C18.52,61.81,18.9,61.81,19.21,61.75Z"/><path class="cls-1" d="M18.73,63.15v.13c.45.28.89-.13,1.33-.22a2.51,2.51,0,0,0,1-2.17A29.32,29.32,0,0,0,18.73,63.15Z"/><path class="cls-1" d="M66.35,61.13a.61.61,0,0,0-.36.31c-.08.2,0,.48.14.56s.5.17.67,0,.27-.27.16-.44A.77.77,0,0,0,66.35,61.13Z"/><path class="cls-1" d="M23.69,62.45a6.51,6.51,0,0,0-1.05-1.17.14.14,0,0,0-.19,0c.27,1,.19,2.1.8,2.93.31.28.5.81,1,.76-.22-.7,0-1.57-.39-2.21C23.86,62.65,23.64,62.65,23.69,62.45Z"/><path class="cls-1" d="M67.71,61.42c-.14.14-.36.22-.27.5a1,1,0,0,0,.52.25c.14-.14.39-.2.39-.42A.46.46,0,0,0,67.71,61.42Z"/><path class="cls-1" d="M70,61.75l-.17,0c-.11,1.11.69,1.92,1.49,2.65h.12c.14.06.17-.11.17-.2A3.52,3.52,0,0,0,70,61.75Z"/><path class="cls-1" d="M69.32,63.87a.66.66,0,0,0,.25-.53A.58.58,0,0,0,68.9,63c-.13.14-.44.28-.42.56S69,64,69.32,63.87Z"/><path class="cls-1" d="M65.52,65.85c0,.12-.08.34.06.42.72-.78,1.77-1.31,2.16-2.34-.09-.23.36-.53-.09-.59A3.88,3.88,0,0,0,65.52,65.85Z"/><path class="cls-1" d="M69.18,64.46c-.17.14-.39.22-.36.5a.83.83,0,0,0,.61.31c.14-.14.39-.25.39-.5A.57.57,0,0,0,69.18,64.46Z"/><path class="cls-1" d="M41,15.49H49.2a.69.69,0,0,0,0-1.38H41a.69.69,0,0,0,0,1.38Zm7.95-1.16h.3c.57,0,.54,1,0,1S48.13,14.33,48.94,14.33Zm-3.37,0h.81c.42,0,1.18,1,.38,1H46C45.53,15.31,44.77,14.33,45.57,14.33Zm-3.36,0H43c.43,0,1.19,1,.39,1h-.81C42.16,15.31,41.4,14.33,42.21,14.33Z"/><path class="cls-1" d="M50.11,26.51c-.36,0-.85-.18-.85.34,0,.36.49.12.85.12s.85.24.85-.12C51,26.33,50.47,26.51,50.11,26.51Z"/><path class="cls-1" d="M51,25.85l.62-2.31-1.54.6-1.58-.6.59,2.31-1.2-.2L48.2,27l-.33,1.4,1.25-.35-.64,2.49,1.58-.6,1.54.6-.48-2.49,1.09.29L51.79,27l.42-1.41ZM50.8,27.7H49.54c-.56,0-.55-.37-.55-.93,0-.81.77-.11,1-.87.39.9,1.14,0,1.14.9C51.18,27.22,51.15,27.7,50.8,27.7Z"/><polygon class="cls-1" points="45.36 26.38 45.49 26.14 45.22 26.16 45.06 25.89 44.9 26.17 44.63 26.14 44.75 26.38 44.55 26.59 44.81 26.64 44.81 26.94 45.06 26.75 45.31 26.94 45.31 26.64 45.57 26.59 45.36 26.38"/><polygon class="cls-1" points="43.59 28.21 43.59 28.5 43.84 28.32 44.09 28.5 44.09 28.21 44.35 28.16 44.15 27.95 44.27 27.71 44 27.73 43.84 27.45 43.68 27.74 43.41 27.71 43.54 27.95 43.33 28.16 43.59 28.21"/><polygon class="cls-1" points="46.34 27.51 46.07 27.54 45.91 27.26 45.75 27.54 45.48 27.51 45.6 27.75 45.4 27.96 45.66 28.01 45.66 28.31 45.91 28.12 46.16 28.31 46.16 28.01 46.42 27.96 46.21 27.75 46.34 27.51"/><polygon class="cls-1" points="46.29 29.03 46.13 29.04 46.04 28.88 45.95 29.04 45.8 29.03 45.87 29.16 45.75 29.28 45.9 29.31 45.9 29.48 46.04 29.37 46.18 29.48 46.18 29.31 46.33 29.28 46.22 29.16 46.29 29.03"/><polygon class="cls-1" points="45.15 29.46 44.68 29.5 44.41 29.02 44.13 29.51 43.67 29.46 43.89 29.86 43.53 30.23 43.98 30.32 43.98 30.82 44.41 30.5 44.83 30.82 44.83 30.32 45.28 30.23 44.93 29.86 45.15 29.46"/><polygon class="cls-1" points="43.2 10.35 43.05 12.94 44.96 11.2 46.87 12.94 46.72 10.35 49.26 9.92 47.16 8.44 48.41 6.17 45.94 6.9 44.96 4.5 43.98 6.9 41.52 6.17 42.77 8.44 40.66 9.92 43.2 10.35"/><path class="cls-1" d="M32.81,59.52l.36,1.54a.88.88,0,0,0,.58.75,2.1,2.1,0,0,0,1.19,0,1.78,1.78,0,0,0,1-.6,1.34,1.34,0,0,0,.1-1l-.35-1.47c-.07-.31,0-.39.33-.49l0-.12-1.21.29,0,.11c.48-.09.58,0,.65.33l.33,1.41a.89.89,0,0,1-.74,1.23c-.79.19-.94-.44-1-.71l-.36-1.54c-.1-.4.07-.45.43-.55l0-.11-1.86.44,0,.12C32.57,59.16,32.72,59.13,32.81,59.52Z"/><path class="cls-1" d="M37.65,59.81l.4.06c.39.07.67.12.74.43,0,.06.09.53-.57.67a1.17,1.17,0,0,1-1.35-.73l-.16,0L37,61.42l.16,0c0-.08,0-.17.13-.2a4.05,4.05,0,0,0,1,0c1-.23,1.25-.86,1.16-1.27a1,1,0,0,0-.79-.72L37.71,59c-.51-.09-.64-.18-.7-.42s.21-.51.5-.57a1.17,1.17,0,0,1,1.26.61l.16,0-.22-1-.17,0a.17.17,0,0,1-.14.2,4.47,4.47,0,0,0-.9,0c-1,.23-1.08.9-1,1.18S36.62,59.64,37.65,59.81Z"/><path class="cls-1" d="M39.67,58.44c0-.77.62-.84,1-.9L40.92,60c0,.39-.1.41-.51.48v.12l2-.19v-.12c-.42,0-.55,0-.59-.38l-.23-2.49c.38,0,1-.05,1.15.7l.16,0-.1-1-3.38.33.08,1Z"/><path class="cls-1" d="M45.15,60.28c-.37-.05-.5-.07-.49-.44l0-.93h.15L46,60.41l1.06,0h0l1.13.14,0-.12c-.19,0-.46-.08-.44-.26a3.2,3.2,0,0,1,.32-.57l1.26.15a2.94,2.94,0,0,1,.19.66c0,.16-.13.15-.48.13v.11l1.82.23V60.8c-.27,0-.34-.2-.53-.74l-.94-2.62-.16,0-1.57,2.43c-.19.31-.3.46-.57.47a.24.24,0,0,1-.18-.08l-1.11-1.38c.31-.07.89-.21.91-.79,0-.8-1.18-.86-1.58-.87l-1.82,0v.12c.32,0,.49,0,.49.45l0,2.09c0,.39-.13.4-.51.43v.12l1.91,0Zm3.69-1.9.42,1.21-1.09-.13Zm-4.14-.83c0-.15,0-.2.36-.2a.6.6,0,0,1,.67.7c0,.62-.31.71-1,.7Z"/><path class="cls-1" d="M54.55,60.57l-.17,0a1.39,1.39,0,0,1-1.57.66c-.37-.07-.48-.13-.44-.36l.4-2.2c.07-.41.24-.38.63-.33l0-.11-1.94-.36,0,.12c.25.06.48.11.42.42l-.41,2.25c0,.29-.22.27-.53.25l0,.12,3.21.58Z"/><path class="cls-1" d="M54.32,61.65l1.94.41,0-.12c-.3-.08-.52-.14-.46-.44l.47-2.24c.06-.32.33-.27.59-.22l0-.12L55,58.52l0,.12c.25.06.51.13.45.43l-.47,2.24c-.06.3-.28.27-.58.23Z"/><path class="cls-1" d="M56.37,62.05v.12l1.15.12v-.12c-.19,0-.46-.07-.44-.25a2.16,2.16,0,0,1,.31-.58l1.26.13a2.24,2.24,0,0,1,.19.65c0,.16-.11.15-.46.14l0,.12,1.82.19,0-.12c-.27,0-.35-.19-.55-.72l-1-2.61-.16,0L57,61.55C56.78,61.89,56.68,62,56.37,62.05Zm1.76-2,.45,1.2-1.09-.11Z"/><path class="cls-1" d="M44,25.25a.16.16,0,0,0,.16.15h1.21a.15.15,0,0,0,.15-.15v-.36a.76.76,0,0,0,.25-.59c0-1.14-.64-.07-1-1-.26.82-1,.13-1,1a.7.7,0,0,0,.25.64Zm.71-1.33c.34,0,.85-.12.85.43,0,.4-.45.17-.78.17s-.78.23-.78-.17C44,23.8,44.35,23.92,44.68,23.92Z"/><path class="cls-1" d="M55.65,38.28a.49.49,0,0,0,.52-.46.52.52,0,0,0-1,0A.49.49,0,0,0,55.65,38.28Z"/><path class="cls-1" d="M53.2,22.17a.26.26,0,0,0,.25-.27l-.25-.49a2.76,2.76,0,0,0-.25.49A.26.26,0,0,0,53.2,22.17Z"/><path class="cls-1" d="M36.47,22.17a.26.26,0,0,0,.25-.27l-.25-.49a2.76,2.76,0,0,0-.25.49A.26.26,0,0,0,36.47,22.17Z"/><path class="cls-1" d="M40.65,22.17a.26.26,0,0,0,.25-.27l-.25-.49a2.76,2.76,0,0,0-.25.49A.26.26,0,0,0,40.65,22.17Z"/><path class="cls-1" d="M44.83,22.17a.26.26,0,0,0,.25-.27l-.25-.49a2.76,2.76,0,0,0-.25.49A.27.27,0,0,0,44.83,22.17Z"/><path class="cls-1" d="M49,22.17a.26.26,0,0,0,.24-.27L49,21.41a2.8,2.8,0,0,0-.24.49A.26.26,0,0,0,49,22.17Z"/><path class="cls-1" d="M36.71,27.64a2.66,2.66,0,0,0-.24-.48s-.25.47-.25.48a.27.27,0,0,0,.25.28A.26.26,0,0,0,36.71,27.64Z"/><path class="cls-1" d="M36.71,33.22a3.2,3.2,0,0,0-.24-.49l-.25.49a.25.25,0,0,0,.25.27A.25.25,0,0,0,36.71,33.22Z"/><path class="cls-1" d="M37.14,37.92a.27.27,0,0,0,.25-.28,3.15,3.15,0,0,0-.25-.49l-.25.49A.27.27,0,0,0,37.14,37.92Z"/><path class="cls-1" d="M40.4,40a.26.26,0,0,0,.25.27A.27.27,0,0,0,40.9,40a2.76,2.76,0,0,0-.25-.49S40.4,40,40.4,40Z"/><path class="cls-1" d="M53.17,27.64a.25.25,0,1,0,.49,0s-.25-.48-.25-.48A2.66,2.66,0,0,0,53.17,27.64Z"/><path class="cls-1" d="M53.17,33.22a.25.25,0,1,0,.49,0l-.25-.49A3.2,3.2,0,0,0,53.17,33.22Z"/><path class="cls-1" d="M52.5,37.64a.25.25,0,1,0,.49,0l-.25-.49A3.2,3.2,0,0,0,52.5,37.64Z"/><path class="cls-1" d="M49,40a.25.25,0,1,0,.5,0s-.26-.49-.26-.49A2.8,2.8,0,0,0,49,40Z"/><path class="cls-1" d="M44.72,42.48a.25.25,0,1,0,.49,0L45,42A2.94,2.94,0,0,0,44.72,42.48Z"/><path class="cls-1" d="M51.61,35.47c0-.4.42-.56.39-1s-.66-.42-.79-.82a.61.61,0,0,1,.56,0c0,.08.18.11.35.05l.15-.45s-.18-.21-.29-.18c-.45.11-.92.16-1.19.58a.86.86,0,0,0,.42.69c.16-.05.19.11.29.19a.18.18,0,0,1-.18.24c-.32-.32-.87.1-1.11-.3.11-.39.32-.84,0-1.21,0-.08.16-.16.08-.24-.13-.38-.53-.08-.77-.08a1,1,0,0,0-.94.48.69.69,0,0,0,.21.39c.1,0,.15,0,.18.11l-.26.16a.48.48,0,0,1,.1.29c-.18.08-.37-.19-.45-.32s0-.58-.26-.63a1.3,1.3,0,0,0-.23.07.82.82,0,0,0-.1.44,1.79,1.79,0,0,0,.1.47,4.53,4.53,0,0,1,1,1c-.24.47-.24,1.14-.8,1.4a.47.47,0,0,0-.15.43l.13.1c.34-.19,1-.24.95-.82a2.07,2.07,0,0,1,.5-.69.54.54,0,0,1,.6.29,1.05,1.05,0,0,1-.71.8c0,.05,0,.13,0,.21s.39.11.55.08c.45-.29.63-.82,1-1,0,.26-.53.34-.16.6.23-.05.55,0,.7-.28C51.29,36.08,52.11,35.86,51.61,35.47Z"/><path class="cls-1" d="M32.54,37.56a.47.47,0,1,0,.53.46A.5.5,0,0,0,32.54,37.56Z"/><path class="cls-1" d="M4.9,53.84a.52.52,0,1,0,.52-.49A.5.5,0,0,0,4.9,53.84Z"/><path class="cls-1" d="M29.14,62.74v.12l1.14-.14v-.11c-.19,0-.46,0-.49-.15a3.29,3.29,0,0,1,.18-.64l1.27-.15a2.52,2.52,0,0,1,.32.6c0,.16-.08.17-.42.24v.11L33,62.41V62.3c-.27,0-.38-.12-.69-.59l-1.54-2.33-.16,0-.94,2.72C29.5,62.5,29.44,62.66,29.14,62.74Zm1.29-2.32.7,1.08-1.1.13Z"/><rect class="cls-1" x="299.97" y="11.95" width="0.54" height="56.35"/><path class="cls-1" d="M408.22,17.67c5.29,0,9.11,4.12,9.11,10s-3.82,10-9.11,10-9.15-4.11-9.15-9.95S402.89,17.67,408.22,17.67Zm0,3.47c-3,0-5.17,2.53-5.17,6.48s2.13,6.48,5.17,6.48,5.13-2.53,5.13-6.48S411.23,21.14,408.22,21.14Z"/><path class="cls-1" d="M426.44,20.85c-.35,0-.56,0-1,0-1.19,0-1.81.35-1.81,1.75v.56h2.75v3.15h-2.75v11h-3.76v-11H418V23.13h1.91v-.78c0-3,1.61-4.65,5.08-4.65.54,0,.86,0,1.45.05Z"/><path class="cls-1" d="M435.26,20.85c-.34,0-.56,0-1,0-1.19,0-1.8.35-1.8,1.75v.56h2.74v3.15H432.5v11h-3.77v-11h-1.91V23.13h1.91v-.78c0-3,1.61-4.65,5.08-4.65.54,0,.86,0,1.45.05Z"/><path class="cls-1" d="M436.29,18h3.85v3.49h-3.85Zm3.82,19.31h-3.76V23.13h3.76Z"/><path class="cls-1" d="M448.82,34.4a2.92,2.92,0,0,0,2.85-2.53l3.25,1.45a6.06,6.06,0,0,1-6.13,4.25c-4.11,0-7-3-7-7.37s2.91-7.34,7-7.34A6,6,0,0,1,454.87,27l-3.2,1.51A2.91,2.91,0,0,0,448.82,26c-2,0-3.31,1.56-3.31,4.19S446.83,34.4,448.82,34.4Z"/><path class="cls-1" d="M455.42,30.2c0-4.16,2.88-7.34,6.89-7.34,4.19,0,6.45,3.12,6.45,7.07V31H459c.27,2.15,1.58,3.44,3.44,3.44a3,3,0,0,0,3-2.07l3.17,1.13a6.43,6.43,0,0,1-6.24,4C458.28,37.57,455.42,34.59,455.42,30.2Zm3.74-1.72H465a2.53,2.53,0,0,0-2.74-2.61A3.14,3.14,0,0,0,459.16,28.48Z"/><path class="cls-1" d="M482.8,37.57c-4.09,0-6.94-3-6.94-7.37s2.85-7.34,6.94-7.34,6.94,3,6.94,7.34S486.89,37.57,482.8,37.57Zm0-3.12c2,0,3.17-1.56,3.17-4.25S484.76,26,482.8,26s-3.2,1.56-3.2,4.22S480.84,34.45,482.8,34.45Z"/><path class="cls-1" d="M498.45,20.85c-.35,0-.57,0-1,0-1.18,0-1.8.35-1.8,1.75v.56h2.74v3.15h-2.74v11h-3.77v-11H490V23.13h1.91v-.78c0-3,1.62-4.65,5.08-4.65.54,0,.87,0,1.46.05Z"/><path class="cls-1" d="M416.31,63.17h-3.44l-9-13.31V63.17H400V43.87h4l8.47,12.66V43.87h3.79Z"/><path class="cls-1" d="M418.15,59.25c0-2.83,2.26-4,5.11-4.52l3.53-.67v-.22c0-1.21-.62-2-2.18-2a2.23,2.23,0,0,0-2.45,1.88l-3.58-.67a6,6,0,0,1,6.16-4.33c3.58,0,5.73,1.64,5.73,4.92v5.78c0,.76.32,1,1.16.89v2.82c-2.4.35-3.85-.13-4.47-1.31A5.5,5.5,0,0,1,423,63.42C420.2,63.42,418.15,61.75,418.15,59.25Zm8.64-2.56-2.77.57c-1.24.24-2.15.64-2.15,1.77,0,1,.72,1.54,1.85,1.54,1.59,0,3.07-.84,3.07-2.42Z"/><path class="cls-1" d="M433.45,52.18h-1.88V49h1.88V45h3.71v4H440v3.15h-2.88v6.53c0,1.21.68,1.37,1.78,1.37a10.51,10.51,0,0,0,1.29-.08v3.12a12.74,12.74,0,0,1-2.42.22c-2.85,0-4.36-1-4.36-3.85Z"/><path class="cls-1" d="M441.82,43.87h3.84v3.49h-3.84Zm3.81,19.3h-3.76V49h3.76Z"/><path class="cls-1" d="M454.23,63.47c-4.08,0-6.93-3-6.93-7.37s2.85-7.34,6.93-7.34,6.94,3,6.94,7.34S458.32,63.47,454.23,63.47Zm0-3.12c2,0,3.18-1.56,3.18-4.25s-1.21-4.22-3.18-4.22S451,53.44,451,56.1,452.27,60.35,454.23,60.35Z"/><path class="cls-1" d="M462.91,49h3.76v1.45a5,5,0,0,1,3.87-1.72c3,0,4.76,2,4.76,5.08v9.33h-3.76V54.92c0-1.59-.65-2.72-2.26-2.72a2.59,2.59,0,0,0-2.61,2.8v8.17h-3.76Z"/><path class="cls-1" d="M476.83,59.25c0-2.83,2.26-4,5.11-4.52l3.52-.67v-.22c0-1.21-.61-2-2.17-2a2.23,2.23,0,0,0-2.45,1.88l-3.58-.67a6,6,0,0,1,6.16-4.33c3.58,0,5.73,1.64,5.73,4.92v5.78c0,.76.32,1,1.15.89v2.82c-2.39.35-3.84-.13-4.46-1.31a5.5,5.5,0,0,1-4.19,1.56C478.88,63.42,476.83,61.75,476.83,59.25Zm8.63-2.56-2.77.57c-1.23.24-2.15.64-2.15,1.77,0,1,.73,1.54,1.86,1.54,1.59,0,3.06-.84,3.06-2.42Z"/><path class="cls-1" d="M495.72,63.17H492V43.87h3.77Z"/><path class="cls-1" d="M508.6,63.17h-4V43.87h4Z"/><path class="cls-1" d="M511.25,49H515v1.45a5,5,0,0,1,3.87-1.72c3,0,4.76,2,4.76,5.08v9.33h-3.76V54.92c0-1.59-.65-2.72-2.26-2.72A2.59,2.59,0,0,0,515,55v8.17h-3.76Z"/><path class="cls-1" d="M526.43,52.18h-1.88V49h1.88V45h3.72v4H533v3.15h-2.87v6.53c0,1.21.67,1.37,1.77,1.37a10.38,10.38,0,0,0,1.29-.08v3.12a12.74,12.74,0,0,1-2.42.22c-2.85,0-4.36-1-4.36-3.85Z"/><path class="cls-1" d="M533.73,56.1c0-4.17,2.88-7.34,6.89-7.34,4.19,0,6.45,3.12,6.45,7.07v1.11h-9.73c.26,2.15,1.58,3.44,3.44,3.44a3,3,0,0,0,3-2.07L547,59.44a6.44,6.44,0,0,1-6.24,4C536.58,63.47,533.73,60.49,533.73,56.1Zm3.74-1.72h5.86a2.53,2.53,0,0,0-2.74-2.61A3.13,3.13,0,0,0,537.47,54.38Z"/><path class="cls-1" d="M552.62,63.17h-3.76V43.87h3.76Z"/><path class="cls-1" d="M558.83,63.17h-3.76V43.87h3.76Z"/><path class="cls-1" d="M561.23,43.87h3.84v3.49h-3.84ZM565,63.17h-3.76V49H565Z"/><path class="cls-1" d="M573.4,68.26c-3.42,0-5.78-1.4-6.59-4.17l3.52-1a3,3,0,0,0,3.12,2.26c2,0,3.34-1,3.34-3.31v-1a4.89,4.89,0,0,1-3.93,1.72c-3.87,0-6.13-3.15-6.13-7s2.26-7,6.13-7a4.93,4.93,0,0,1,3.93,1.72V49h3.76V61.61C580.55,65.89,577.59,68.26,573.4,68.26Zm.35-16.33c-2,0-3.2,1.46-3.2,3.82s1.15,3.85,3.2,3.85c1.8,0,3.06-1.32,3.06-3.63v-.38C576.81,53.25,575.55,51.93,573.75,51.93Z"/><path class="cls-1" d="M582.24,56.1c0-4.17,2.88-7.34,6.88-7.34,4.2,0,6.46,3.12,6.46,7.07v1.11h-9.74c.27,2.15,1.59,3.44,3.45,3.44a3,3,0,0,0,3-2.07l3.18,1.13a6.44,6.44,0,0,1-6.24,4C585.09,63.47,582.24,60.49,582.24,56.1ZM586,54.38h5.86a2.53,2.53,0,0,0-2.74-2.61A3.13,3.13,0,0,0,586,54.38Z"/><path class="cls-1" d="M597.33,49h3.77v1.45A5,5,0,0,1,605,48.76c3,0,4.76,2,4.76,5.08v9.33H606V54.92c0-1.59-.65-2.72-2.26-2.72A2.59,2.59,0,0,0,601.1,55v8.17h-3.77Z"/><path class="cls-1" d="M618.37,60.3a2.93,2.93,0,0,0,2.85-2.53l3.25,1.45a6.07,6.07,0,0,1-6.13,4.25c-4.12,0-7-3-7-7.37s2.9-7.34,7-7.34a6,6,0,0,1,6.08,4.17l-3.2,1.5a2.92,2.92,0,0,0-2.85-2.52c-2,0-3.31,1.56-3.31,4.19S616.38,60.3,618.37,60.3Z"/><path class="cls-1" d="M625,56.1c0-4.17,2.88-7.34,6.89-7.34,4.19,0,6.45,3.12,6.45,7.07v1.11h-9.73c.26,2.15,1.58,3.44,3.44,3.44a3,3,0,0,0,3-2.07l3.17,1.13a6.44,6.44,0,0,1-6.24,4C627.82,63.47,625,60.49,625,56.1Zm3.74-1.72h5.86a2.53,2.53,0,0,0-2.74-2.61A3.13,3.13,0,0,0,628.71,54.38Z"/><polygon class="cls-1" points="349.85 54.44 349.85 68.28 363.55 68.28 363.55 54.44 356.7 48.97 349.85 54.44"/><polygon class="cls-1" points="363.55 45.68 363.55 54.44 374.38 63.07 382.92 52.36 372.1 43.73 363.55 45.68"/><polygon class="cls-1" points="372.1 43.73 385.6 40.65 382.55 27.29 369.05 30.37 365.25 38.26 372.1 43.73"/><polygon class="cls-1" points="369.05 30.37 375.06 17.9 362.72 11.95 356.7 24.43 360.5 32.32 369.05 30.37"/><polygon class="cls-1" points="341.31 43.73 330.49 52.36 339.03 63.07 349.85 54.44 349.85 45.68 341.31 43.73"/><polygon class="cls-1" points="344.36 30.37 330.86 27.29 327.81 40.65 341.31 43.73 348.16 38.26 344.36 30.37"/><polygon class="cls-1" points="356.7 24.43 350.68 11.95 338.34 17.9 344.36 30.37 352.9 32.32 356.7 24.43"/></svg>