<?xml version="1.0" encoding="UTF-8" standalone="no"?>
<svg
   version="1.1"
   id="Layer_1"
   x="0px"
   y="0px"
   viewBox="0 0 280.4 75"
   style="enable-background:new 0 0 280.4 75;"
   xml:space="preserve"
   sodipodi:docname="TPG_Telecome_logo.svg"
   inkscape:version="1.1.2 (0a00cf5339, 2022-02-04)"
   xmlns:inkscape="http://www.inkscape.org/namespaces/inkscape"
   xmlns:sodipodi="http://sodipodi.sourceforge.net/DTD/sodipodi-0.dtd"
   xmlns="http://www.w3.org/2000/svg"
   xmlns:svg="http://www.w3.org/2000/svg"
   xmlns:ns="ns_sfw;"><defs
   id="defs45" /><sodipodi:namedview
   id="namedview43"
   pagecolor="#ffffff"
   bordercolor="#666666"
   borderopacity="1.0"
   inkscape:pageshadow="2"
   inkscape:pageopacity="0.0"
   inkscape:pagecheckerboard="0"
   showgrid="false"
   inkscape:zoom="4.7717547"
   inkscape:cx="140.30478"
   inkscape:cy="37.407623"
   inkscape:window-width="1920"
   inkscape:window-height="1016"
   inkscape:window-x="1920"
   inkscape:window-y="27"
   inkscape:window-maximized="1"
   inkscape:current-layer="Layer_1" />
 <style
   type="text/css"
   id="style2">
  .st0{fill:#0F2141;}
	.st1{fill:#EC1C24;}
	.st2{fill:#5D5869;}
	.st3{fill:#F1511B;}
	.st4{fill:#F9B10B;}
	.st5{fill:#591568;}
 </style>
 <metadata
   id="metadata4">
  <ns:sfw>
   <ns:slices>
   </ns:slices>
   <ns:sliceSourceBounds
   bottomLeftOrigin="true"
   height="75"
   width="280.4"
   x="-76.8"
   y="-174.6">
   </ns:sliceSourceBounds>
  </ns:sfw>
 </metadata>
 <g
   id="g40">
  <path
   class="st0"
   d="M19.6,13h8.8v10.5h-8.8v18.3c0,3.8,1.9,5.1,5.2,5.1c1.4,0,3-0.2,3.6-0.4v9.8c-1,0.5-3.2,1.1-6.6,1.1   c-8.5,0-13.9-5.1-13.9-13.6V23.5H0V13h2.2C6.8,13,9,10,9,6.1V0h10.5V13"
   id="path6">
  </path>
  <path
   class="st0"
   d="M37.7,73.9V13h11.4v5.3c2-3.3,6.8-6.3,13.4-6.3c12.9,0,20.2,9.8,20.2,22.8c0,13.2-8.3,23-20.5,23   c-6.1,0-10.5-2.4-12.6-5.3v21.4H37.7 M60.3,22.6c-6.1,0-10.9,4.5-10.9,12.3c0,7.7,4.8,12.4,10.9,12.4c5.9,0,10.8-4.6,10.8-12.4   C71,27.1,66.2,22.6,60.3,22.6z"
   id="path8">
  </path>
  <g
   id="g12">
   <path
   class="st0"
   d="M99.4,56.3c0.9,4.8,4.6,8.3,10.1,8.3c7.5,0,11.6-3.7,11.6-12.3v-3.1c-1.7,2.7-5.8,5.6-12.1,5.6    c-11.6,0-20.3-9-20.3-21.3c0-11.5,8.4-21.3,20.3-21.3c6.9,0,10.9,3,12.5,5.9V13h11.3v39c0,12.1-6.4,23-22.9,23    C98,75,90,67.6,88.7,59.2L99.4,56.3 M121.4,33.5c0-6.7-4.6-11-10.3-11c-5.9,0-10.5,4.3-10.5,11c0,6.8,4.3,11.1,10.5,11.1    C117.1,44.7,121.4,40.3,121.4,33.5z"
   id="path10">
   </path>
  </g>
  <polyline
   class="st0"
   points="155,41 155,54.8 151.1,54.8 151.1,41 145.7,41 145.7,37.1 160.4,37.1 160.4,41 155,41  "
   id="polyline14">
  </polyline>
  <polyline
   class="st0"
   points="165.3,54.8 165.3,37.1 176.5,37.1 176.5,40.8 169.2,40.8 169.2,44.2 175.7,44.2 175.7,47.6    169.2,47.6 169.2,51.1 176.5,51.1 176.5,54.8 165.3,54.8  "
   id="polyline16">
  </polyline>
  <polyline
   class="st0"
   points="182.3,54.8 182.3,37.1 186.1,37.1 186.1,51 193.8,51 193.8,54.8 182.3,54.8  "
   id="polyline18">
  </polyline>
  <polyline
   class="st0"
   points="198.8,54.8 198.8,37.1 209.9,37.1 209.9,40.8 202.7,40.8 202.7,44.2 209.3,44.2 209.3,47.6    202.7,47.6 202.7,51.1 210,51.1 210,54.8 198.8,54.8  "
   id="polyline20">
  </polyline>
  <path
   class="st0"
   d="M214.7,46c0-5.6,4.2-9.3,9.2-9.3c5.2,0,7.5,3.5,8.2,5.9l-3.7,1.2c-0.2-1.2-1.4-3.3-4.5-3.3   c-2.4,0-5.1,1.7-5.1,5.4c0,3.3,2.5,5.2,5.1,5.2c3.1,0,4.3-2,4.6-3.3l3.8,1.1c-0.6,2.5-3,6.2-8.4,6.2   C218.8,55.2,214.7,51.5,214.7,46"
   id="path22">
  </path>
  <path
   class="st0"
   d="M245.5,36.8c5,0,9.2,3.6,9.2,9.2c0,5.7-4.2,9.3-9.2,9.3c-5,0-9.2-3.6-9.2-9.3   C236.4,40.3,240.6,36.8,245.5,36.8 M245.5,51.2c2.5,0,5.1-1.6,5.1-5.3s-2.6-5.3-5.1-5.3c-2.5,0-5.1,1.6-5.1,5.3   S243.1,51.2,245.5,51.2z"
   id="path24">
  </path>
  <polyline
   class="st0"
   points="276.1,54.8 276.1,43.1 271.5,54.8 268.3,54.8 263.7,43.3 263.7,54.8 260,54.8 260,37.1 265.1,37.1    269.9,49 274.5,37.1 280,37.1 280,54.8 276.1,54.8  "
   id="polyline26">
  </polyline>
  <path
   class="st0"
   d="M271.3,30.7c5.1,0,9.2-4.2,9.2-9.3c0-5.1-4.1-9.2-9.2-9.2s-9.2,4.1-9.2,9.2C262.1,26.5,266.2,30.7,271.3,30.7"
   id="path28">
  </path>
  <path
   class="st1"
   d="M153.5,30.7c5.1,0,9.2-4.2,9.2-9.3c0-5.1-4.1-9.2-9.2-9.2c-5.1,0-9.2,4.1-9.2,9.2   C144.3,26.5,148.4,30.7,153.5,30.7"
   id="path30">
  </path>
  <path
   class="st2"
   d="M224.1,30.7c5.1,0,9.2-4.2,9.2-9.3c0-5.1-4.1-9.2-9.2-9.2c-5.1,0-9.2,4.1-9.2,9.2   C215,26.5,219.1,30.7,224.1,30.7"
   id="path32">
  </path>
  <path
   class="st3"
   d="M247.6,30.7c5.2,0,9.3-4.2,9.3-9.3c0-5.1-4.1-9.2-9.3-9.2c-5,0-9.2,4.1-9.2,9.2   C238.5,26.5,242.7,30.7,247.6,30.7"
   id="path34">
  </path>
  <path
   class="st4"
   d="M200.6,30.7c5.1,0,9.2-4.2,9.2-9.3c0-5.1-4.1-9.2-9.2-9.2c-5.1,0-9.2,4.1-9.2,9.2   C191.5,26.5,195.5,30.7,200.6,30.7"
   id="path36">
  </path>
  <path
   class="st5"
   d="M177,30.7c5.1,0,9.2-4.2,9.2-9.3c0-5.1-4.1-9.2-9.2-9.2c-5.1,0-9.2,4.1-9.2,9.2   C167.8,26.5,171.9,30.7,177,30.7"
   id="path38">
  </path>
 </g>
</svg>
